<?xml version="1.0" encoding="UTF-8" standalone="no"?>
<!-- Created with Inkscape (http://www.inkscape.org/) -->

<svg
   width="238.125mm"
   height="238.125mm"
   viewBox="0 0 238.125 238.125"
   version="1.1"
   id="svg2270"
   xml:space="preserve"
   xmlns="http://www.w3.org/2000/svg"
   xmlns:svg="http://www.w3.org/2000/svg"><defs
     id="defs2267" /><g
     id="layer1"
     transform="translate(-3253.5212,1521.4237)"><g
       id="logo_libreoffice"
       transform="translate(1056.1021)"><path
         id="path16648"
         style="fill:none;fill-opacity:1;stroke:none;stroke-width:4.23333;stroke-linecap:square;-inkscape-stroke:none;paint-order:markers stroke fill;stop-color:#000000"
         d="m 2197.4191,-1521.4237 v 238.125 h 238.125 v -238.125 z" /><g
         id="g17757"
         style="stroke-width:0.580946"
         transform="matrix(1.721332,0,0,1.721332,2209.1478,-1208.6234)"><path
           id="path17358"
           style="font-weight:bold;font-size:20.692px;line-height:11.3806px;font-family:Inter;-inkscape-font-specification:Inter;letter-spacing:0px;word-spacing:0px;fill:#292c2f;fill-opacity:1;stroke-width:0.225392;stroke-linecap:round;stroke-linejoin:round;paint-order:fill markers stroke"
           d="m 11.572451,-115.26848 c -0.925849,0 -1.6898195,0.71269 -1.6898195,1.57975 0,0.87441 0.7639705,1.5875 1.6898195,1.5875 0.933196,0 1.697571,-0.71309 1.697571,-1.5875 0,-0.86706 -0.764375,-1.57975 -1.697571,-1.57975 z m 57.527755,0.15451 c -1.616562,0 -3.174484,0.97002 -3.174484,2.9099 v 1.55753 h -1.822111 v 1.46968 h 1.822111 v 9.816967 h 1.734261 v -9.816967 h 2.527495 v -1.46968 h -2.527495 v -1.14619 c 0,-1.11689 0.47015,-1.7048 1.616439,-1.7048 0.499665,0 0.793614,0.11744 0.969967,0.17622 l 0.499711,-1.49862 c -0.264528,-0.11757 -0.793526,-0.29404 -1.645894,-0.29404 z m 7.465694,0 c -1.616561,0 -3.174484,0.97002 -3.174484,2.9099 v 1.55753 h -1.822111 v 1.46968 h 1.822111 v 9.816967 h 1.734262 v -9.816967 h 2.527494 v -1.46968 h -2.527494 v -1.14619 c 0,-1.11689 0.470149,-1.7048 1.616438,-1.7048 0.499664,0 0.793615,0.11744 0.969967,0.17622 l 0.499711,-1.49862 c -0.264529,-0.11757 -0.793525,-0.29404 -1.645894,-0.29404 z m 4.408516,0.23513 c -0.676016,0 -1.23455,0.52901 -1.23455,1.17564 0,0.64662 0.558534,1.17564 1.23455,1.17564 0.676016,0 1.23455,-0.52902 1.23455,-1.17564 0,-0.64663 -0.558534,-1.17564 -1.23455,-1.17564 z m -25.27701,0.26458 c -3.850354,0 -6.642489,2.96826 -6.642489,7.72976 0,4.76151 2.792135,7.730279 6.642489,7.730279 3.850354,0 6.642489,-2.968769 6.642489,-7.730279 0,-4.7615 -2.792135,-7.72976 -6.642489,-7.72976 z m -57.3804769,0.20567 v 15.048697 h 9.6330038 v -2.623097 H 1.4986471 v -12.4256 z m 17.3705159,0 v 15.048697 h 3.086117 v -1.807637 h 0.139526 c 0.433533,0.94054 1.381634,1.991088 3.203939,1.991088 2.571801,0 4.577498,-2.035178 4.577498,-5.812048 0,-3.87975 -2.093986,-5.80481 -4.570263,-5.80481 -1.888438,0 -2.792337,1.12426 -3.211174,2.04277 h -0.0956 v -5.65806 z m 40.009961,1.49914 c 2.733457,0 4.879289,2.11582 4.879289,6.02495 0,3.90914 -2.145832,6.02547 -4.879289,6.02547 -2.733457,0 -4.879289,-2.11633 -4.879289,-6.02547 0,-3.90913 2.145832,-6.02495 4.879289,-6.02495 z m -21.05918,2.10116 c -1.263856,0 -2.299973,0.73501 -2.711462,2.13114 h -0.117822 v -1.96939 h -3.03444 v 11.286647 h 3.130041 v -6.385657 c 0,-1.38877 1.013778,-2.34404 2.395203,-2.34404 0.433531,0 1.028996,0.074 1.322916,0.1695 v -2.77761 c -0.279224,-0.0661 -0.668471,-0.11059 -0.984436,-0.11059 z m 7.083289,0.015 c -3.321298,0 -5.474085,2.35906 -5.474085,5.84202 0,3.57847 2.123536,5.812045 5.599142,5.812045 2.792242,0 4.67302,-1.359875 5.1139,-3.454055 l -2.894914,-0.19068 c -0.315965,0.85972 -1.12441,1.30793 -2.167826,1.30793 -1.565126,0 -2.55695,-1.036 -2.55695,-2.7187 v -0.007 h 7.685835 v -0.8599 c 0,-3.83567 -2.321812,-5.73143 -5.305102,-5.73143 z m 47.835323,0 c -3.05677,0 -5.084444,2.40988 -5.084444,5.84874 0,3.38008 1.939562,5.819795 5.1139,5.819795 2.49832,0 4.144569,-1.528255 4.438488,-3.526915 h -1.734261 c -0.323312,1.23447 -1.352195,1.96887 -2.704227,1.96887 -2.057441,0 -3.380156,-1.70426 -3.380156,-4.32015 0,-2.55711 1.352107,-4.23282 3.380156,-4.23282 1.528384,0 2.439699,0.94067 2.704227,1.96939 h 1.734261 c -0.293919,-2.11621 -2.087191,-3.52691 -4.467944,-3.52691 z m 11.551232,0 c -3.056765,0 -5.08496,2.40993 -5.08496,5.87819 0,3.46826 1.99866,5.790345 5.26118,5.790345 2.29258,0 3.96834,-1.146255 4.4974,-2.850985 l -1.67535,-0.47026 c -0.44088,1.17568 -1.46267,1.7632 -2.82205,1.7632 -2.035403,0 -3.438856,-1.31509 -3.519684,-3.73259 h 8.193294 v -0.73484 c 0,-4.20305 -2.49846,-5.64306 -4.84983,-5.64306 z m -91.108133,0.14676 v 11.286647 h 3.130558 v -11.286647 z m 70.092879,0 v 11.286647 h 1.734261 v -11.286647 z m 21.015254,1.41076 c 1.88109,0 3.08612,1.41076 3.08612,3.32125 h -6.429584 c 0.117569,-1.75618 1.359507,-3.32125 3.343464,-3.32125 z m -59.335395,0.77928 c 1.35938,0 2.300004,0.9699 2.307352,2.31459 h -4.739245 c 0.06613,-1.2859 1.04312,-2.31459 2.431893,-2.31459 z m -20.647836,0.154 c 1.55043,0 2.373499,1.34497 2.373499,3.29954 0,1.96927 -0.837765,3.33571 -2.373499,3.33571 -1.50634,0 -2.373498,-1.32235 -2.373498,-3.33571 0,-2.01335 0.852462,-3.29954 2.373498,-3.29954 z" /><g
           aria-label="Komunitas"
           id="text12151"
           style="font-size:10.8091px;line-height:5.94499px;font-family:'Inter UI';-inkscape-font-specification:'Inter UI';letter-spacing:0px;word-spacing:0px;opacity:1;fill:#42474c;stroke-width:0.11774;stroke-linecap:round;stroke-linejoin:round;paint-order:fill markers stroke"><path
             id="path17381"
             d="m 36.291355,-126.09676 v 1.22938 h 0.971517 v -1.22938 z m -37.3512081,0.33228 v 7.88014 h 1.06608482 v -3.79512 l 3.78426518,3.79512 h 1.4040486 l -4.1909586,-4.20647 3.9108724,-3.67367 H 3.54245 l -3.53621828,3.33054 v -3.33054 z m 40.3386231,0.29042 v 1.67845 h -0.712618 v 0.75448 h 0.712618 v 3.2091 c 0,0.73891 0.142358,1.24917 0.427364,1.53066 0.285005,0.27796 0.802385,0.41703 1.551843,0.41703 h 0.997872 v -0.81287 h -0.997872 c -0.404637,0 -0.67348,-0.069 -0.807186,-0.20619 -0.130187,-0.13723 -0.195336,-0.44658 -0.195336,-0.92863 v -3.2091 h 2.000394 v -0.75448 h -2.000394 v -1.67845 z m -31.5407105,1.53582 c -0.8479787,0 -1.5126643,0.27431 -1.9947103,0.82321 -0.4785274,0.5489 -0.7177856,1.30883 -0.7177856,2.27996 0,0.96761 0.2392582,1.72755 0.7177856,2.27997 0.482046,0.5489 1.1467316,0.82372 1.9947103,0.82372 0.8444601,0 1.5080134,-0.27482 1.9900594,-0.82372 0.4820461,-0.55242 0.7229531,-1.31236 0.7229531,-2.27997 0,-0.97113 -0.240907,-1.73106 -0.7229531,-2.27996 -0.482046,-0.5489 -1.1455993,-0.82321 -1.9900594,-0.82321 z m 7.1623535,0 c -0.425748,0 -0.793656,0.086 -1.103292,0.25838 -0.309635,0.17242 -0.57518,0.44013 -0.79685,0.80254 v -0.91829 h -0.976168 v 5.91127 h 0.976168 v -3.34088 c 0,-0.57353 0.146173,-1.02793 0.438216,-1.3622 0.292042,-0.33778 0.686236,-0.50642 1.182357,-0.50642 0.418711,0 0.728066,0.1374 0.928625,0.41186 0.20056,0.27093 0.300757,0.69141 0.300757,1.26142 v 3.53622 h 0.976684 v -3.34088 c 0,-0.57705 0.145657,-1.0331 0.4377,-1.36736 0.292042,-0.33427 0.690051,-0.50126 1.193209,-0.50126 0.411674,0 0.717731,0.1374 0.91829,0.41186 0.200559,0.27444 0.300757,0.69493 0.300757,1.26142 v 3.53622 h 0.976167 v -3.56826 c 0,-0.79521 -0.166996,-1.40732 -0.501261,-1.83658 -0.334266,-0.43279 -0.808967,-0.64906 -1.424719,-0.64906 -0.457416,0 -0.855425,0.10349 -1.193209,0.31109 -0.337784,0.2076 -0.627965,0.53005 -0.870748,0.96635 -0.144262,-0.41519 -0.367645,-0.73217 -0.670243,-0.95033 -0.299079,-0.21815 -0.663172,-0.32711 -1.09244,-0.32711 z m 17.39067,0 c -0.411674,0 -0.775768,0.0881 -1.09244,0.26407 -0.313154,0.17593 -0.585811,0.44147 -0.818038,0.79685 v -0.91829 h -0.976684 v 5.91127 h 0.976684 v -3.34088 c 0,-0.57705 0.151121,-1.0331 0.453719,-1.36736 0.302599,-0.33427 0.715966,-0.50126 1.240235,-0.50126 0.436304,0 0.763699,0.13905 0.981852,0.41702 0.218152,0.27797 0.327112,0.69681 0.327112,1.25626 v 3.53622 h 0.971 v -3.56826 c 0,-0.81631 -0.174109,-1.43389 -0.522449,-1.8526 -0.34834,-0.42223 -0.861905,-0.63304 -1.540991,-0.63304 z m 13.315983,0 c -0.316672,0 -0.641902,0.035 -0.976168,0.10542 -0.334265,0.0669 -0.679185,0.16922 -1.034562,0.30644 v 0.89711 c 0.295561,-0.16186 0.603267,-0.28339 0.923458,-0.36432 0.320191,-0.0809 0.649235,-0.12144 0.98702,-0.12144 0.531306,0 0.943024,0.12318 1.235066,0.36948 0.295561,0.24279 0.443384,0.58771 0.443384,1.03457 v 0.0951 H 45.82359 c -0.883164,0 -1.548367,0.16864 -1.995227,0.50643 -0.443341,0.33778 -0.665076,0.83929 -0.665076,1.5043 0,0.57001 0.177924,1.02554 0.533301,1.36684 0.358896,0.33779 0.84071,0.50695 1.445907,0.50695 0.478527,0 0.883133,-0.0843 1.213879,-0.25322 0.330747,-0.1724 0.607219,-0.43846 0.82889,-0.79736 v 0.89762 h 0.971 v -3.37292 c 0,-0.90076 -0.211323,-1.57256 -0.633553,-2.0159 -0.42223,-0.44335 -1.060629,-0.66508 -1.915645,-0.66508 z m 6.428548,0 c -0.724829,0 -1.28437,0.15112 -1.67845,0.45372 -0.394082,0.3026 -0.591179,0.73185 -0.591179,1.28778 0,0.45742 0.133597,0.81821 0.401009,1.0821 0.267413,0.26038 0.702119,0.45366 1.303797,0.58033 l 0.337964,0.0796 c 0.601678,0.13019 0.990407,0.26544 1.166337,0.40618 0.179447,0.14074 0.269234,0.3433 0.269234,0.6072 0,0.285 -0.123186,0.50674 -0.369487,0.66507 -0.246301,0.15482 -0.598334,0.23203 -1.055749,0.23203 -0.341303,0 -0.686223,-0.046 -1.034562,-0.13746 -0.34834,-0.095 -0.702022,-0.23571 -1.060918,-0.4222 v 1.00304 c 0.380007,0.12317 0.740802,0.2146 1.082105,0.2744 0.344821,0.0633 0.675515,0.0951 0.992187,0.0951 0.760014,0 1.356769,-0.1604 1.789555,-0.48059 0.436305,-0.32019 0.654224,-0.75438 0.654224,-1.30328 0,-0.48205 -0.146174,-0.85707 -0.438216,-1.12448 -0.288524,-0.27093 -0.777451,-0.48009 -1.467094,-0.62787 l -0.33228,-0.0739 c -0.52075,-0.11611 -0.867319,-0.23765 -1.039729,-0.36432 -0.172411,-0.13018 -0.258899,-0.30759 -0.258899,-0.53278 0,-0.29556 0.119887,-0.5173 0.359151,-0.66508 0.242782,-0.14778 0.605226,-0.22169 1.087272,-0.22169 0.316672,0 0.622729,0.0351 0.91829,0.10542 0.295561,0.0704 0.580279,0.17603 0.854728,0.31678 v -0.91829 c -0.267412,-0.10554 -0.559243,-0.18491 -0.875915,-0.23771 -0.316672,-0.0528 -0.654479,-0.0791 -1.013375,-0.0791 z m -29.545483,0.14263 v 3.57808 c 0,0.81279 0.175758,1.43036 0.527616,1.8526 0.351858,0.42222 0.867072,0.63355 1.546159,0.63355 0.411674,0 0.772469,-0.0865 1.082104,-0.2589 0.313155,-0.17593 0.587461,-0.44313 0.823206,-0.80202 v 0.90796 h 0.971517 v -5.91127 h -0.971517 v 3.35122 c 0,0.57704 -0.15277,1.03257 -0.458887,1.36684 -0.302598,0.33426 -0.715965,0.50178 -1.240234,0.50178 -0.436304,0 -0.7637,-0.13907 -0.981852,-0.41703 -0.218152,-0.28149 -0.327112,-0.70197 -0.327112,-1.26142 v -3.54139 z m 13.801224,0 v 5.91127 h 0.971517 v -5.91127 z m -28.5532955,0.68058 c 0.5172318,0 0.9273009,0.20586 1.2298991,0.61753 0.3025982,0.40816 0.4537191,0.96223 0.4537191,1.66243 0,0.70371 -0.1511209,1.25996 -0.4537191,1.66812 -0.3025982,0.40815 -0.7126673,0.61185 -1.2298991,0.61185 -0.524269,0 -0.9376362,-0.20205 -1.2402344,-0.60669 -0.2990796,-0.40815 -0.4485514,-0.96605 -0.4485514,-1.67328 0,-0.70724 0.1511209,-1.26296 0.4537191,-1.6676 0.3025982,-0.40816 0.7143163,-0.61236 1.2350667,-0.61236 z m 38.4813725,2.25877 h 0.965832 v 0.21653 c 0,0.63335 -0.163698,1.14196 -0.490926,1.52549 -0.32371,0.38 -0.754601,0.56999 -1.292944,0.56999 -0.390563,0 -0.700435,-0.1002 -0.929143,-0.30076 -0.225189,-0.20408 -0.337963,-0.4789 -0.337963,-0.82372 0,-0.43279 0.151637,-0.73884 0.454235,-0.91829 0.302599,-0.17945 0.846265,-0.26924 1.630909,-0.26924 z"
             style="fill:#28a745;stroke-width:0.11774" /></g><g
           id="g17352"
           transform="matrix(1.1124684,0,0,1.1124684,-18.135929,11.16268)"
           style="stroke-width:0.522212"><rect
             style="opacity:1;fill:#ec7265;fill-opacity:1;stroke:none;stroke-width:0.111625;stroke-linecap:round;stroke-linejoin:round;stroke-miterlimit:4;stroke-dasharray:none;stroke-opacity:1;paint-order:fill markers stroke"
             id="rect12145"
             width="13.881422"
             height="13.881422"
             x="114.39042"
             y="-113.13309" /><g
             aria-label="ID"
             id="text12141"
             style="font-size:11.8902px;line-height:6.5396px;font-family:Inter;-inkscape-font-specification:Inter;letter-spacing:0px;word-spacing:0px;opacity:1;fill:#ffffff;stroke-width:0.116422;stroke-linecap:round;stroke-linejoin:round;paint-order:fill markers stroke"><path
               d="m 117.84341,-110.5161 h -1.82828 v 8.64742 h 1.82828 z"
               style="font-weight:bold;stroke-width:0.116422"
               id="path17400" /><path
               d="m 122.41625,-101.86868 c 2.63476,0 4.23082,-1.62984 4.23082,-4.33216 0,-2.69387 -1.59606,-4.31526 -4.20549,-4.31526 h -3.09077 v 8.64742 z m -1.23716,-1.5665 v -5.51442 h 1.16538 c 1.62139,0 2.47853,0.82758 2.47853,2.74876 0,1.92963 -0.85714,2.76566 -2.48275,2.76566 z"
               style="font-weight:bold;stroke-width:0.116422"
               id="path17402" /></g></g></g></g></g></svg>
