<?xml version="1.0" encoding="UTF-8" standalone="no"?>
<!-- Created with Inkscape (http://www.inkscape.org/) -->

<svg
   width="158.75mm"
   height="211.66669mm"
   viewBox="0 0 158.75 211.66669"
   version="1.1"
   id="svg1099"
   inkscape:version="1.2.2 (b0a8486541, 2022-12-01)"
   sodipodi:docname="avatar.svg"
   xmlns:inkscape="http://www.inkscape.org/namespaces/inkscape"
   xmlns:sodipodi="http://sodipodi.sourceforge.net/DTD/sodipodi-0.dtd"
   xmlns="http://www.w3.org/2000/svg"
   xmlns:svg="http://www.w3.org/2000/svg">
  <sodipodi:namedview
     id="namedview1101"
     pagecolor="#ffffff"
     bordercolor="#000000"
     borderopacity="0.25"
     inkscape:showpageshadow="2"
     inkscape:pageopacity="0.0"
     inkscape:pagecheckerboard="0"
     inkscape:deskcolor="#d1d1d1"
     inkscape:document-units="mm"
     showgrid="false"
     inkscape:zoom="0.46803664"
     inkscape:cx="-85.463395"
     inkscape:cy="73.712178"
     inkscape:window-width="1920"
     inkscape:window-height="1044"
     inkscape:window-x="0"
     inkscape:window-y="0"
     inkscape:window-maximized="1"
     inkscape:current-layer="layer1" />
  <defs
     id="defs1096" />
  <g
     inkscape:label="Layer 1"
     inkscape:groupmode="layer"
     id="layer1"
     transform="translate(-214.2505,-202.94443)">
    <rect
       style="fill:#f9f9f9;fill-opacity:1;stroke-width:4.23332;stroke-linecap:square;-inkscape-stroke:none;paint-order:markers stroke fill;stop-color:#000000"
       id="rect1462"
       width="158.75"
       height="211.66669"
       x="214.2505"
       y="202.94443"
       rx="0.15881033"
       ry="0.21174712" />
    <g
       id="g1473"
       transform="matrix(0.79420035,0,0,0.79420035,18.858599,241.43299)"
       style="stroke-width:1.25913">
      <path
         d="m 425.6255,84.795712 c 0,15.398748 -4.36739,29.774448 -11.938,41.962918 -14.05114,22.6307 -39.12659,37.69784 -67.71923,37.69784 -28.5997,0 -53.67161,-15.07067 -67.72628,-37.70137 -7.56356,-12.18494 -11.93447,-26.56416 -11.93447,-41.959388 0,-31.425446 18.19627,-58.596392 44.62639,-71.564504 h 0.004 c 1.25236,-0.613834 2.52941,-1.195917 3.81705,-1.74625 0.0141,-0.0071 0.0282,-0.01411 0.0423,-0.01764 1.53106,-0.652639 3.08328,-1.259417 4.6602,-1.8132782 1.14653,-0.4021667 2.30364,-0.7831668 3.47133,-1.1359446 7.29192,-2.2013334 15.02834,-3.3831391 23.03992,-3.3831391 7.41892,0 14.60147,1.0160001 21.41714,2.9139447 33.5915,9.3556672 58.24009,40.1708082 58.24009,76.7468102"
         style="fill:#f4f4f4;fill-opacity:1;fill-rule:nonzero;stroke:none;stroke-width:0.0444193"
         id="path106" />
      <path
         d="m 417.65978,85.794073 c 0,13.86064 -3.93348,26.800527 -10.74209,37.768387 -12.64708,20.36939 -35.21781,33.92665 -60.94942,33.92665 -25.73867,0 -48.30586,-13.56078 -60.95295,-33.93017 -6.80861,-10.96434 -10.74208,-23.907755 -10.74208,-37.764867 0,-28.282196 16.37594,-52.736753 40.16375,-64.403115 h 0.004 c 1.12889,-0.557389 2.27542,-1.0795 3.43605,-1.576917 0.0106,-0.0071 0.0247,-0.01058 0.0388,-0.01411 1.37583,-0.585611 2.77283,-1.132416 4.19453,-1.629833 1.03011,-0.366889 2.07433,-0.705556 3.12208,-1.023056 6.5652,-1.982611 13.5255,-3.044472 20.73628,-3.044472 6.67456,0 13.14097,0.910167 19.27578,2.621139 30.23306,8.417278 52.41573,36.152669 52.41573,69.070365"
         style="fill:#dfdfdf;fill-opacity:1;fill-rule:nonzero;stroke:none;stroke-width:0.0444193"
         id="path108" />
      <path
         d="m 407.53152,122.9451 c -12.77408,20.574 -35.57058,34.26884 -61.56325,34.26884 -25.99972,0 -48.7927,-13.69836 -61.56678,-34.27236 l 0.24342,-1.22414 c 2.09197,-10.47045 9.80369,-18.96534 20.05894,-21.94631 2.50472,-0.73025 4.96359,-1.273528 7.11906,-1.467556 4.58258,-0.409222 8.87941,-0.790222 12.9293,-1.132417 1.2312,-0.105833 2.44123,-0.208139 3.63009,-0.303389 h 0.004 c 5.03766,-0.405694 9.67669,-0.73025 13.96647,-0.934861 h 0.007 c 1.2312,-0.0635 2.43417,-0.112889 3.60892,-0.151694 1.17475,0.03881 2.3742,0.08819 3.60892,0.151694 h 0.004 c 3.09738,0.148167 6.36763,0.356306 9.8425,0.613834 1.34408,0.09878 2.71991,0.208139 4.1275,0.321027 1.18886,0.09525 2.40241,0.197556 3.63361,0.303389 4.04636,0.342195 8.34672,0.723195 12.92578,1.132417 2.15547,0.194028 4.61433,0.737306 7.11905,1.467556 10.25525,2.98097 17.96698,11.47586 20.05895,21.94631 l 0.24341,1.22766"
         style="fill:#64686b;fill-opacity:1;fill-rule:nonzero;stroke:none;stroke-width:0.0444193"
         id="path110-3" />
      <path
         d="M 359.42322,86.668962 V 99.32663 c -0.53975,0.141111 -1.08303,0.278694 -1.62631,0.402166 -0.71614,0.169334 -1.43581,0.321024 -2.159,0.458614 -7.65528,1.47814 -15.80092,1.48166 -23.45972,0.004 -0.73025,-0.14112 -1.45345,-0.29281 -2.16959,-0.458616 -0.54327,-0.127 -1.08655,-0.261055 -1.6263,-0.405694 V 86.665434 c 4.39914,3.062112 9.75078,4.861279 15.52222,4.861279 5.77145,0 11.11956,-1.792112 15.5187,-4.857751"
         style="fill:#64686b;fill-opacity:1;fill-rule:nonzero;stroke:none;stroke-width:0.0444193"
         id="path112-6" />
      <path
         d="m 359.42322,75.662295 v 18.291529 c -0.57856,0.313972 -1.18181,0.458611 -1.82034,0.409222 -0.762,-0.05644 -5.12939,-2.525889 -10.10708,-1.795639 -6.88622,1.016 -14.87311,-0.289278 -19.1135,-3.393722 V 75.658767 c 4.39914,3.062111 9.75078,4.861278 15.51869,4.861278 5.77498,0 11.12309,-1.795639 15.52223,-4.85775"
         style="fill:#64686b;fill-opacity:1;fill-rule:nonzero;stroke:none;stroke-width:0.0444193"
         id="path114-7" />
      <path
         d="m 370.52161,68.927767 h -2.17312 V 54.693182 h 2.17312 c 0.62088,0 1.12183,0.504473 1.12183,1.125362 v 11.983862 c 0,0.620888 -0.50095,1.125361 -1.12183,1.125361"
         style="fill:#64686b;fill-opacity:1;fill-rule:nonzero;stroke:none;stroke-width:0.0444193"
         id="path116-5" />
      <path
         d="m 316.84999,69.086517 h 2.17311 V 54.851932 h -2.17311 c -0.62089,0 -1.12536,0.504473 -1.12536,1.125362 v 11.983862 c 0,0.624416 0.50447,1.125361 1.12536,1.125361"
         style="fill:#64686b;fill-opacity:1;fill-rule:nonzero;stroke:none;stroke-width:0.0444193"
         id="path118-3" />
      <path
         d="m 369.2128,27.585736 v 38.918447 c 0,7.725834 -3.4925,15.077723 -9.59203,19.819057 -4.46617,3.471334 -9.8813,5.877278 -15.71978,5.877278 -6.80508,0 -13.03866,-3.153833 -17.86467,-7.545917 -5.21052,-4.737806 -8.11388,-11.507612 -8.11388,-18.549057 V 27.585736 h 51.29036"
         style="fill:#64686b;fill-opacity:1;fill-rule:nonzero;stroke:none;stroke-width:0.0444193"
         id="path120-5" />
      <path
         d="m 316.26791,56.573488 c 0.63853,0.22225 2.96333,3.633611 2.89278,4.543778 0.7373,-9.433278 -1.40759,-17.540112 1.7145,-24.662696 2.08138,-4.744861 5.60563,-6.353528 10.97844,-5.958417 3.49956,0.257528 6.07483,0.772584 9.51089,1.400528 3.43606,0.627945 6.84389,0.532695 10.29053,0.02117 2.08492,-0.310445 3.62303,-0.807861 5.65503,-1.312334 1.55222,-0.388055 3.24555,-0.508 4.70252,0.155223 1.65101,0.747888 3.92289,3.040944 4.58964,4.727222 3.33023,8.434917 2.17664,19.572112 2.45181,26.070279 0.81139,-1.643944 4.29683,-3.71475 5.48217,-5.17525 1.18886,-1.4605 0.39511,-1.679222 1.13594,-3.411361 0.9772,-2.278945 0.99483,-4.332112 0.52564,-6.766278 -0.83608,-4.310945 -0.17992,-8.487834 -0.34572,-12.87639 -0.1517,-4.078111 -1.29117,-9.221612 -3.69711,-12.551834 -3.14678,-4.360334 -7.47889,-5.866695 -11.72634,-8.957029 -1.47108,-1.072444 -2.00378,-1.446389 -3.82411,-1.474611 -1.63336,-0.02469 -3.51719,0.197556 -4.76603,-1.0900832 -0.41275,-0.4233333 -0.71614,-0.9630834 -1.19239,-1.3193889 -0.58913,-0.4374445 -1.36877,-0.5326945 -2.10255,-0.4797778 -1.06539,0.081139 -2.14842,0.2963333 -3.18558,0.5362222 -1.19592,0.2786945 -2.38126,0.6032501 -3.60892,0.7620001 -1.30528,0.1728611 -2.62467,0.2328333 -3.94053,0.2998611 -3.72533,0.1799167 -7.85283,0.4480278 -10.77031,3.0691665 -0.70908,0.635 -1.30527,1.407584 -1.68275,2.286 -0.19402,0.455084 -0.32808,0.934862 -0.39864,1.421695 -0.06,0.409222 -0.11994,0.744361 -0.52211,0.9525 -0.87841,0.451556 -2.13783,-0.194028 -2.99508,-0.437444 -1.36525,-0.381 -2.69522,-0.892528 -4.0005,-1.449917 0,0 -0.38453,2.868083 0.28222,3.326695 -1.32997,-0.920751 -3.45016,1.178277 -4.09222,2.130777 -1.15711,1.718028 -1.42522,3.951112 -1.61219,5.958417 -2.16959,23.248057 1.23825,18.097502 2.37066,27.622502 0.0811,0.691445 0.19403,1.42875 0.66675,1.93675 0.3175,0.342195 0.74789,0.543278 1.21356,0.702028"
         style="fill:#64686b;fill-opacity:1;fill-rule:nonzero;stroke:none;stroke-width:0.0444193"
         id="path122-6" />
    </g>
  </g>
</svg>
