<?xml version="1.0" encoding="UTF-8" standalone="no"?>
<!-- Created with Inkscape (http://www.inkscape.org/) -->

<svg
   width="45.469368mm"
   height="1.1983038mm"
   viewBox="0 0 45.46937 1.1983038"
   version="1.1"
   id="svg1"
   inkscape:version="1.3 (0e150ed6c4, 2023-07-21)"
   sodipodi:docname="poster-peserta.svg"
   xml:space="preserve"
   xmlns:inkscape="http://www.inkscape.org/namespaces/inkscape"
   xmlns:sodipodi="http://sodipodi.sourceforge.net/DTD/sodipodi-0.dtd"
   xmlns="http://www.w3.org/2000/svg"
   xmlns:svg="http://www.w3.org/2000/svg"><sodipodi:namedview
     id="namedview1"
     pagecolor="#ffffff"
     bordercolor="#000000"
     borderopacity="0.25"
     inkscape:showpageshadow="2"
     inkscape:pageopacity="0.0"
     inkscape:pagecheckerboard="0"
     inkscape:deskcolor="#d1d1d1"
     inkscape:document-units="mm"
     inkscape:zoom="1.5910634"
     inkscape:cx="312.99821"
     inkscape:cy="354.79415"
     inkscape:window-width="1920"
     inkscape:window-height="1044"
     inkscape:window-x="1080"
     inkscape:window-y="28"
     inkscape:window-maximized="1"
     inkscape:current-layer="layer1"
     showguides="false" /><defs
     id="defs1" /><g
     inkscape:label="Layer 1"
     inkscape:groupmode="layer"
     id="layer1"
     transform="translate(-100.92544,-74.24917)"><g
       id="g112"
       transform="matrix(0.5,0,0,0.5,-45.796269,9.0815886)"><g
         id="g3"
         transform="matrix(0.83467834,0,0,0.67273849,51.233438,43.04584)"
         inkscape:export-filename="line.svg"
         inkscape:export-xdpi="96"
         inkscape:export-ydpi="96"><path
           style="opacity:1;fill:none;fill-opacity:1;stroke:#ffcb2f;stroke-width:1.1277;stroke-linecap:round;stroke-linejoin:round;stroke-opacity:1;paint-order:fill markers stroke"
           d="m 290.74745,130.31608 c 1.41279,0 2.43662,2.43477 3.84942,2.43477 1.4128,0 2.43663,-2.43477 3.84943,-2.43477 1.4128,0 2.43663,2.43477 3.84942,2.43477 1.4128,0 2.43663,-2.43477 3.84943,-2.43477 1.4128,0 2.43663,2.43477 3.84943,2.43477 1.41279,0 2.43663,-2.43477 3.84942,-2.43477 1.41281,0 2.43663,2.43477 3.84943,2.43477 1.4128,0 2.43662,-2.43477 3.84944,-2.43477 1.41279,0 2.43662,2.43477 3.84941,2.43477 1.41281,0 2.43664,-2.43477 3.84943,-2.43477 1.41281,0 2.43663,2.43477 3.84943,2.43477 1.41279,0 2.43663,-2.43477 3.84943,-2.43477 1.41279,0 2.43662,2.43477 3.84942,2.43477 1.4128,0 2.43663,-2.43477 3.84943,-2.43477"
           id="path111"
           sodipodi:nodetypes="csssssssssssssc" /><path
           style="opacity:1;fill:none;fill-opacity:1;stroke:#ffcb2f;stroke-width:1.1277;stroke-linecap:round;stroke-linejoin:round;stroke-opacity:1;paint-order:fill markers stroke"
           d="m 344.67844,130.31608 c 1.41279,0 2.43662,2.43477 3.84943,2.43477 1.41279,0 2.43662,-2.43477 3.84942,-2.43477 1.4128,0 2.43663,2.43477 3.84942,2.43477 1.41281,0 2.43663,-2.43477 3.84943,-2.43477 1.4128,0 2.43663,2.43477 3.84943,2.43477 1.41279,0 2.43663,-2.43477 3.84942,-2.43477 1.41281,0 2.43663,2.43477 3.84943,2.43477 1.4128,0 2.43662,-2.43477 3.84944,-2.43477 1.41279,0 2.43662,2.43477 3.84941,2.43477 1.41281,0 2.43664,-2.43477 3.84943,-2.43477 1.41281,0 2.43663,2.43477 3.84943,2.43477 1.41279,0 2.43663,-2.43477 3.84943,-2.43477 1.41279,0 2.43662,2.43477 3.84942,2.43477 1.4128,0 2.43663,-2.43477 3.84943,-2.43477"
           id="path1"
           sodipodi:nodetypes="csssssssssssssc" /></g></g></g></svg>
