<?xml version="1.0" encoding="UTF-8" standalone="no"?>
<svg
   version="1.1"
   id="Layer_1"
   x="0px"
   y="0px"
   viewBox="0 0 300 120"
   xml:space="preserve"
   width="300"
   height="120"
   sodipodi:docname="logo_text_white.svg"
   inkscape:version="1.2.2 (b0a8486541, 2022-12-01)"
   xmlns:inkscape="http://www.inkscape.org/namespaces/inkscape"
   xmlns:sodipodi="http://sodipodi.sourceforge.net/DTD/sodipodi-0.dtd"
   xmlns:xlink="http://www.w3.org/1999/xlink"
   xmlns="http://www.w3.org/2000/svg"
   xmlns:svg="http://www.w3.org/2000/svg"><sodipodi:namedview
   id="namedview2063"
   pagecolor="#ffffff"
   bordercolor="#000000"
   borderopacity="0.25"
   inkscape:showpageshadow="2"
   inkscape:pageopacity="0.0"
   inkscape:pagecheckerboard="0"
   inkscape:deskcolor="#d1d1d1"
   showgrid="false"
   inkscape:zoom="2.708219"
   inkscape:cx="79.01872"
   inkscape:cy="112.06627"
   inkscape:window-width="1920"
   inkscape:window-height="1044"
   inkscape:window-x="0"
   inkscape:window-y="28"
   inkscape:window-maximized="1"
   inkscape:current-layer="Layer_1" /><defs
   id="defs207">	
	

		<defs
   id="defs183">
			<path
   id="SVGID_1_"
   d="m 84.109,81.648 -4.833,1.003 v 142.585 c 0,128.975 80.512,226.087 209.403,286.769 h 0.191 C 417.756,451.328 498.273,354.212 498.273,225.236 V 82.651 l -4.649,-0.966 C 358.563,53.629 219.177,53.616 84.109,81.648 Z" />
		</defs>
		
		
		
		
	
			
		<path
   id="SVGID_1_-6"
   d="m 84.109,81.648 -4.833,1.003 v 142.585 c 0,128.975 80.512,226.087 209.403,286.769 h 0.191 C 417.756,451.328 498.273,354.212 498.273,225.236 V 82.651 l -4.649,-0.966 C 358.563,53.629 219.177,53.616 84.109,81.648 Z" />











	
	
	
	
	





		<defs
   id="defs256">
			<path
   id="path321"
   d="m 84.109,81.648 -4.833,1.003 v 142.585 c 0,128.975 80.512,226.087 209.403,286.769 h 0.191 C 417.756,451.328 498.273,354.212 498.273,225.236 V 82.651 l -4.649,-0.966 C 358.563,53.629 219.177,53.616 84.109,81.648 Z" />
		</defs>
		<clipPath
   id="SVGID_2_-7">
			<use
   xlink:href="#SVGID_1_-6"
   style="overflow:visible"
   id="use258" />
		</clipPath>
		
		
		
	
			
		
			
		
			
		</defs>

			
		















<rect
   style="opacity:0.97654;fill:none;fill-opacity:1;stroke-width:3.39019;-inkscape-stroke:none;paint-order:markers stroke fill;stop-color:#000000"
   id="rect676"
   width="300"
   height="120"
   x="6.3427733e-06"
   y="-4.2773436e-06" /><g
   id="g2316"
   style="fill:#42474c" />
			
		<g
   id="g2305"
   style="fill:#42474c" />
			
		
			
		<g
   id="path453"><path
     id="path565"
     style="color:#000000;-inkscape-font-specification:'Poppins Bold';fill:#000000;stroke-linecap:round;-inkscape-stroke:none;paint-order:markers stroke fill"
     d="m 95.713875,16.412101 c -7.74131,0 -15.222237,1.866743 -21.873047,5.552735 l -0.01953,0.01172 -0.01953,0.01172 c -6.582449,3.692593 -12.03004,9.02747 -15.925782,15.546875 l -0.02148,0.03516 -0.02148,0.03711 c -3.908479,6.676984 -5.851563,14.341013 -5.851563,22.34375 0,4.170238 0.556402,8.242203 1.611328,12.146484 H 39.383797 V 17.371086 H 4.8212973 v 9.072265 76.472659 H 60.889656 V 86.847648 c 3.520174,4.541463 7.877228,8.339618 12.91211,11.164063 l 0.01953,0.01172 0.01953,0.01172 c 6.650811,3.685999 14.131738,5.552739 21.873047,5.552739 7.741317,0 15.208407,-1.86925 21.816417,-5.576176 6.59603,-3.700218 12.03687,-9.065684 15.87304,-15.619141 l 0.0117,-0.01953 0.0117,-0.02148 c 0.47615,-0.823344 0.83223,-1.701808 1.25,-2.552734 0.38064,0.804881 0.69978,1.638509 1.13281,2.417969 l 0.0195,0.03711 0.0215,0.03711 c 3.7093,6.531614 9.06996,11.89226 15.60156,15.601562 l 0.0586,0.0332 0.0566,0.03125 c 6.66653,3.65847 14.25764,5.43945 22.22265,5.43945 6.80233,0 13.30959,-1.3493 19.13281,-4.177731 5.50376,-2.673243 10.30435,-6.342502 14.0586,-10.916016 2.2183,-2.656909 3.95937,-5.580211 5.44531,-8.617187 0.43367,0.890067 0.80927,1.805985 1.30664,2.666015 l 0.0332,0.05664 0.0332,0.05664 c 3.89573,6.519399 9.34333,11.85428 15.92578,15.546875 l 0.0195,0.01172 0.0195,0.01172 c 6.65081,3.685994 14.13174,5.552734 21.87305,5.552734 7.74131,0 15.20842,-1.86924 21.8164,-5.576171 6.59606,-3.700218 12.03689,-9.065675 15.87305,-15.619141 l 0.0117,-0.01953 0.0117,-0.02148 c 3.88646,-6.720348 5.82812,-14.397647 5.82812,-22.40039 0,-7.989746 -1.93823,-15.641212 -5.83398,-22.310547 -3.78329,-6.584567 -9.25011,-11.965448 -15.90039,-15.658203 -6.60554,-3.703228 -14.06921,-5.570313 -21.80664,-5.570313 -7.74131,0 -15.22224,1.866743 -21.87305,5.552735 l -0.0195,0.01172 -0.0195,0.01172 c -6.58245,3.692595 -12.03005,9.027476 -15.92578,15.546875 l -0.0215,0.03516 -0.0215,0.03711 c -0.59191,1.011181 -1.05088,2.084433 -1.55274,3.138672 -2.67987,-6.686506 -7.04704,-12.496876 -12.92968,-16.626953 -7.20534,-5.103313 -16.05982,-7.515625 -25.58008,-7.515625 -7.97731,0 -15.57432,1.828052 -22.19922,5.580078 -6.57703,3.662024 -11.96472,9.062613 -15.66797,15.664062 l -0.01,0.01563 -0.008,0.01563 c -0.42247,0.760445 -0.73288,1.574715 -1.10547,2.359375 -0.42728,-0.866754 -0.79426,-1.760612 -1.2832,-2.597656 -3.78328,-6.584558 -9.25012,-11.965448 -15.90039,-15.658203 -6.60554,-3.703223 -14.0692,-5.570313 -21.806647,-5.570313 z m 0,9.072266 c 6.336705,0 12.130325,1.471691 17.378915,4.416016 5.31258,2.944325 9.47213,7.040482 12.48047,12.289062 3.07233,5.248581 4.60937,11.168989 4.60937,17.761719 0,6.592728 -1.53704,12.546788 -4.60937,17.859375 -3.07235,5.24858 -7.2319,9.344737 -12.48047,12.289062 -5.24859,2.944326 -11.04221,4.416016 -17.378915,4.416016 -6.336698,0 -12.162023,-1.47169 -17.474609,-4.416016 -5.248581,-2.944325 -9.439826,-7.040482 -12.576172,-12.289062 -3.07234,-5.312587 -4.609375,-11.266647 -4.609375,-17.859375 0,-6.59273 1.537035,-12.513138 4.609375,-17.761719 3.136346,-5.24858 7.327591,-9.344737 12.576172,-12.289062 5.312586,-2.944325 11.137911,-4.416016 17.474609,-4.416016 z m 155.923835,0 c 6.3367,0 12.13033,1.471691 17.3789,4.416016 5.3126,2.944325 9.47215,7.040482 12.48047,12.289062 3.07234,5.248581 4.60938,11.168989 4.60938,17.761719 0,6.592728 -1.53704,12.546788 -4.60938,17.859375 -3.07233,5.24858 -7.23188,9.344737 -12.48047,12.289062 -5.24857,2.944326 -11.0422,4.416016 -17.3789,4.416016 -6.33671,0 -12.16203,-1.47169 -17.47461,-4.416016 -5.24859,-2.944325 -9.43983,-7.040482 -12.57617,-12.289062 -3.07234,-5.312587 -4.60938,-11.266647 -4.60938,-17.859375 0,-6.59273 1.53704,-12.513138 4.60938,-17.761719 3.13634,-5.24858 7.32758,-9.344737 12.57617,-12.289062 5.31258,-2.944325 11.1379,-4.416016 17.47461,-4.416016 z m -77.94336,0.191406 c 8.06489,0 14.84891,1.952991 20.35351,5.857422 5.56863,3.904432 9.24882,9.311845 11.04102,16.224609 h -18.14453 c -1.21614,-2.240246 -2.97699,-3.935762 -5.28125,-5.08789 -2.24025,-1.216135 -4.89641,-1.824219 -7.96875,-1.824219 -5.3126,0 -9.56919,1.760862 -12.76953,5.28125 -3.20036,3.456383 -4.80078,8.097232 -4.80078,13.921875 0,6.208687 1.66382,11.073362 4.99218,14.59375 3.39238,3.456382 8.03322,5.183594 13.92188,5.183594 4.03244,0 7.42544,-1.024039 10.17773,-3.072266 2.81632,-2.048226 4.86441,-4.99356 6.14453,-8.833984 H 170.52638 V 55.824211 h 35.71484 v 15.265625 c -1.21614,4.096452 -3.29591,7.903438 -6.24023,11.423828 -2.88032,3.520388 -6.56051,6.368681 -11.04102,8.544922 -4.48048,2.17624 -9.53729,3.265625 -15.16992,3.265625 -6.65673,0 -12.60885,-1.439995 -17.85742,-4.320313 -5.18457,-2.944325 -9.24904,-7.008786 -12.19336,-12.193359 -2.88032,-5.184573 -4.32031,-11.104984 -4.32031,-17.761719 0,-6.656736 1.43999,-12.579099 4.32031,-17.763672 2.94432,-5.24858 7.00879,-9.313041 12.19336,-12.193359 5.18456,-2.944326 11.10498,-4.416016 17.76172,-4.416016 z M 13.893563,26.443351 h 16.417968 v 54.726563 h 21.50586 V 93.843742 H 13.893563 Z m 81.820312,13.921875 c -5.4406,0 -9.79228,1.760862 -13.056641,5.28125 -3.200352,3.52039 -4.800781,8.288023 -4.800781,14.304688 0,5.952658 1.600429,10.722245 4.800781,14.30664 3.264361,3.52039 7.616041,5.281251 13.056641,5.28125 5.376595,1e-6 9.664895,-1.792556 12.865235,-5.376953 3.26437,-3.584395 4.89649,-8.322286 4.89649,-14.210937 0,-5.952658 -1.63212,-10.688596 -4.89649,-14.208984 -3.20034,-3.584397 -7.48864,-5.376954 -12.865235,-5.376954 z m 155.923835,0 c -5.44061,0 -9.79229,1.760862 -13.05664,5.28125 -3.20036,3.52039 -4.80078,8.288023 -4.80078,14.304688 0,5.952658 1.60042,10.722245 4.80078,14.30664 3.26435,3.52039 7.61603,5.281251 13.05664,5.28125 5.37658,1e-6 9.66489,-1.792556 12.86523,-5.376953 3.26437,-3.584395 4.89649,-8.322286 4.89649,-14.210937 0,-5.952658 -1.63212,-10.688596 -4.89649,-14.208984 -3.20034,-3.584397 -7.48865,-5.376954 -12.86523,-5.376954 z M 95.713875,49.437492 c 3.36022,0 4.577955,0.645585 6.097665,2.347656 l 0.0566,0.0625 0.0586,0.0625 c 1.53127,1.651362 2.47656,3.746601 2.47656,8.041016 0,4.212383 -0.93293,6.348507 -2.53125,8.103516 l -0.0312,0.03125 -0.0293,0.0332 c -1.51971,1.70207 -2.737445,2.347656 -6.097665,2.347656 -3.430973,10e-7 -4.801869,-0.697501 -6.330078,-2.322266 -1.508214,-1.714681 -2.455078,-3.915057 -2.455078,-8.193359 0,-4.380112 0.964851,-6.549497 2.419922,-8.164063 1.54182,-1.65073 2.90905,-2.349609 6.365234,-2.349609 z m 155.923835,0 c 3.36019,0 4.57797,0.645592 6.09765,2.347656 l 0.0566,0.0625 0.0586,0.0625 c 1.53127,1.651362 2.47656,3.746601 2.47656,8.041016 0,4.212383 -0.93293,6.348507 -2.53125,8.103516 l -0.0312,0.03125 -0.0293,0.0332 c -1.51968,1.702063 -2.73745,2.347656 -6.09765,2.347656 -3.43098,10e-7 -4.80187,-0.697504 -6.33008,-2.322266 -1.50821,-1.714677 -2.45508,-3.915052 -2.45508,-8.193359 0,-4.380117 0.96486,-6.549501 2.41992,-8.164063 1.54182,-1.650727 2.90904,-2.349609 6.36524,-2.349609 z" /></g></svg>
