<?xml version="1.0" encoding="UTF-8" standalone="no"?>
<!-- Created with Inkscape (http://www.inkscape.org/) -->

<svg
   width="50.761127mm"
   height="24.234068mm"
   viewBox="0 0 50.761129 24.234069"
   version="1.1"
   id="svg1"
   inkscape:version="1.3 (0e150ed6c4, 2023-07-21)"
   sodipodi:docname="drawing.svg"
   xml:space="preserve"
   xmlns:inkscape="http://www.inkscape.org/namespaces/inkscape"
   xmlns:sodipodi="http://sodipodi.sourceforge.net/DTD/sodipodi-0.dtd"
   xmlns="http://www.w3.org/2000/svg"
   xmlns:svg="http://www.w3.org/2000/svg"><sodipodi:namedview
     id="namedview1"
     pagecolor="#ffffff"
     bordercolor="#000000"
     borderopacity="0.25"
     inkscape:showpageshadow="2"
     inkscape:pageopacity="0.0"
     inkscape:pagecheckerboard="0"
     inkscape:deskcolor="#d1d1d1"
     inkscape:document-units="mm"
     inkscape:zoom="1.5910634"
     inkscape:cx="459.12689"
     inkscape:cy="315.198"
     inkscape:window-width="1920"
     inkscape:window-height="1044"
     inkscape:window-x="3000"
     inkscape:window-y="28"
     inkscape:window-maximized="1"
     inkscape:current-layer="layer1"
     showguides="false" /><defs
     id="defs1" /><g
     inkscape:label="Layer 1"
     inkscape:groupmode="layer"
     id="layer1"
     transform="translate(55.259794,-15.590989)"><g
       id="g10"
       transform="matrix(0.75837622,0,0,0.75837622,-15.08349,11.681331)"
       style="fill:#ffffff"
       inkscape:export-filename="louca_logo_white.png"
       inkscape:export-xdpi="96"
       inkscape:export-ydpi="96"><g
         id="g8"
         transform="matrix(2.2450119,0,0,2.2450119,-0.87680146,98.661439)"
         style="fill:#ffffff"><path
           id="path2"
           d="m -10.547197,-36.283108 c -0.847372,0 -1.533525,0.688975 -1.533525,1.537759 h -10.328627 c -0.115711,0 -0.209197,0.09525 -0.209197,0.210961 0,0.115711 0.09349,0.210608 0.209197,0.210608 h 10.387894 c 0.187325,0.661458 0.789517,1.1176 1.474258,1.1176 0.8477253,0 1.5352891,-0.688975 1.5352891,-1.539169 0,-0.848784 -0.6875638,-1.537759 -1.5352891,-1.537759 z m -0.337608,0.597959 c 0.0028,0 0.0056,0 0.0085,0 0.195439,0 0.282222,0.112889 0.282222,0.2413 0,0.115711 -0.0702,0.216253 -0.190147,0.32773 l -0.149931,0.143581 h 0.330553 v 0.140405 h -0.529167 v -0.129469 l 0.221897,-0.227542 c 0.09102,-0.09349 0.139348,-0.1651 0.139348,-0.231422 0,-0.08396 -0.04692,-0.122767 -0.136525,-0.122767 -0.05362,0 -0.117123,0.02364 -0.173567,0.07585 l -0.0085,-0.150284 c 0.0635,-0.0441 0.128411,-0.06597 0.205317,-0.06738 z m 0.640997,0 c 0.0025,0 0.0053,0 0.0081,0 0.16122,0 0.2921001,0.110419 0.2921001,0.435328 0,0.325261 -0.1308801,0.43568 -0.2921001,0.43568 -0.16263,0 -0.293511,-0.110419 -0.293511,-0.43568 0,-0.319617 0.126647,-0.431095 0.285397,-0.435328 z m 0.0081,0.141816 c -0.08255,0 -0.1143,0.107598 -0.1143,0.293512 0,0.186266 0.03175,0.293511 0.1143,0.293511 0.08149,0 0.1143,-0.107245 0.1143,-0.293511 0,-0.185914 -0.03281,-0.293512 -0.1143,-0.293512 z m -0.657225,0.868187 c 0.195792,0 0.282575,0.11183 0.282575,0.239888 0,0.117123 -0.07056,0.216253 -0.190147,0.329495 l -0.150283,0.141816 h 0.330552 v 0.141817 h -0.530577 v -0.13088 l 0.223308,-0.227189 c 0.09102,-0.09243 0.137936,-0.165453 0.137936,-0.231775 0,-0.08255 -0.04551,-0.122414 -0.135114,-0.122414 -0.05362,0 -0.117122,0.02469 -0.173567,0.07585 l -0.0085,-0.150283 c 0.06491,-0.04551 0.132291,-0.06632 0.213783,-0.06632 z m 0.603603,0 c 0.19438,0 0.283633,0.08572 0.283633,0.209549 0,0.111478 -0.103364,0.184503 -0.217664,0.198614 0.155928,0.01376 0.2247197,0.101953 0.2247197,0.21202 0,0.148872 -0.1322917,0.249414 -0.3390197,0.249414 -0.06738,0 -0.137936,-0.01235 -0.195791,-0.04127 l 0.0127,-0.144639 c 0.06456,0.03034 0.129469,0.04551 0.192616,0.04551 0.09243,0 0.150284,-0.04022 0.150284,-0.107597 0,-0.08537 -0.0702,-0.122767 -0.227189,-0.122767 v -0.13088 c 0.152753,0 0.221897,-0.05503 0.221897,-0.128059 0,-0.06068 -0.04692,-0.09913 -0.135114,-0.09913 -0.05644,0 -0.122767,0.02187 -0.168275,0.05503 l -0.0067,-0.14605 c 0.06068,-0.03457 0.132292,-0.04974 0.203906,-0.04974 z"
           style="fill:#ffffff;fill-opacity:1;fill-rule:nonzero;stroke:none;stroke-width:0.352778" /><path
           id="path3"
           d="m -18.250452,-35.515816 c -0.115711,0 -0.209197,0.09384 -0.209197,0.20955 v 0.771878 c 0,0.115711 0.09349,0.210608 0.209197,0.210608 0.117122,0 0.210961,-0.0949 0.210961,-0.210608 v -0.771878 c 0,-0.115711 -0.09384,-0.20955 -0.210961,-0.20955 z"
           style="fill:#ffffff;fill-opacity:1;fill-rule:nonzero;stroke:none;stroke-width:0.352778" /><path
           id="path4"
           d="m -14.719852,-35.515816 c -0.115711,0 -0.20955,0.09384 -0.20955,0.20955 v 0.771878 c -0.0011,0.115711 0.09384,0.210608 0.20955,0.210608 0.115711,0 0.20955,-0.0949 0.20955,-0.210608 v -0.771878 c 0,-0.115711 -0.09384,-0.20955 -0.20955,-0.20955 z"
           style="fill:#ffffff;fill-opacity:1;fill-rule:nonzero;stroke:none;stroke-width:0.352778" /><path
           id="path5"
           d="m -19.201188,-36.750538 c -0.115711,0 -0.210961,0.09525 -0.20955,0.210961 l 0.0042,1.99143 c 0,0.115712 0.09384,0.209198 0.210962,0.209198 0.115711,0 0.209197,-0.0949 0.208138,-0.210609 l -0.0042,-1.779058 h 5.002036 v 1.780469 c 0,0.115712 0.09525,0.209198 0.210961,0.209198 0.115711,0 0.20955,-0.09349 0.20955,-0.209198 v -1.99143 c 0,-0.115711 -0.09384,-0.210961 -0.20955,-0.210961 z"
           style="fill:#ffffff;fill-opacity:1;fill-rule:nonzero;stroke:none;stroke-width:0.352778" /><path
           id="path6"
           d="m -16.490444,-36.112363 c -0.554213,0 -1.007533,0.45473 -1.007533,1.010003 v 0.406752 c 0,0.117123 0.09384,0.210609 0.20955,0.210609 0.117122,0 0.210961,-0.09349 0.210961,-0.210609 v -0.406752 c 0,-0.329142 0.257528,-0.589845 0.587022,-0.589845 0.330553,0 0.588434,0.260703 0.588434,0.589845 v 0.406752 c 0,0.117123 0.09349,0.210609 0.209197,0.210609 0.117122,0 0.210961,-0.09349 0.210961,-0.210609 v -0.406752 c 0,-0.555273 -0.453319,-1.010003 -1.008592,-1.010003 z"
           style="fill:#ffffff;fill-opacity:1;fill-rule:nonzero;stroke:none;stroke-width:0.352778" /><path
           id="path7"
           d="m -16.593807,-40.309713 -1.930753,1.099608 c -0.03986,0.02328 -0.0702,0.05786 -0.08819,0.100542 l -0.767644,1.792817 -1.347611,0.563738 c -0.106186,0.04551 -0.156986,0.167923 -0.111478,0.27552 0.04374,0.107597 0.166511,0.156986 0.274108,0.112889 l 1.42487,-0.596547 c 0.04974,-0.02081 0.0896,-0.06068 0.111478,-0.11042 l 0.773288,-1.806575 1.869723,-1.066447 c 0.100894,-0.05644 0.136525,-0.186267 0.07867,-0.286808 -0.05785,-0.100542 -0.185914,-0.136172 -0.286455,-0.07832 z"
           style="fill:#ffffff;fill-opacity:1;fill-rule:nonzero;stroke:none;stroke-width:0.352778" /><path
           id="path8"
           d="m -16.376144,-40.309713 c -0.101952,-0.05785 -0.228952,-0.02222 -0.286808,0.07832 -0.05785,0.100541 -0.02187,0.230364 0.07867,0.286808 l 1.870074,1.066447 0.772936,1.806575 c 0.02222,0.04974 0.06209,0.08961 0.111831,0.11042 l 1.424869,0.596547 c 0.107245,0.0441 0.230012,-0.0053 0.274109,-0.112889 0.04551,-0.107597 -0.0056,-0.230011 -0.111478,-0.27552 l -1.347964,-0.563738 -0.767644,-1.792817 c -0.01764,-0.04269 -0.04939,-0.07726 -0.08925,-0.100542 z"
           style="fill:#ffffff;fill-opacity:1;fill-rule:nonzero;stroke:none;stroke-width:0.352778" /><path
           id="path9"
           d="m -16.490444,-41.11193 c -0.115711,0 -0.20955,0.09525 -0.20955,0.210962 v 0.771525 c 0,0.115711 0.09384,0.20955 0.20955,0.210961 0.117123,-0.0014 0.210609,-0.09525 0.210609,-0.210961 v -0.771525 c 0,-0.115712 -0.09349,-0.210962 -0.210609,-0.210962 z"
           style="fill:#ffffff;fill-opacity:1;fill-rule:nonzero;stroke:none;stroke-width:0.352778" /><path
           id="path10"
           d="m -16.593807,-38.649188 -0.584553,0.334786 c -0.06597,0.03704 -0.105834,0.107597 -0.105834,0.183092 l 0.0039,0.760941 c 0.0014,0.115712 0.09525,0.209198 0.212372,0.209198 0.115711,-0.0011 0.20955,-0.09631 0.208139,-0.21202 l -0.0028,-0.636764 0.37218,-0.214841 0.37465,0.214841 v 0.638175 c 0,0.115711 0.09384,0.20955 0.20955,0.210609 0.115711,-0.0011 0.210961,-0.0949 0.210961,-0.210609 v -0.760589 c 0,-0.07585 -0.04163,-0.144991 -0.106186,-0.182033 l -0.584552,-0.334786 c -0.06456,-0.03739 -0.143228,-0.03739 -0.207786,0 z"
           style="fill:#ffffff;fill-opacity:1;fill-rule:nonzero;stroke:none;stroke-width:0.352778" /><path
           id="path11"
           d="m -12.36753,-36.175863 c -0.155575,-0.0039 -0.325261,0.03457 -0.461433,0.154517 -0.06915,0.05927 -0.125589,0.136525 -0.15875,0.227188 -0.03281,0.09384 -0.03986,0.195792 -0.01094,0.297745 0.02752,0.09807 0.08537,0.183444 0.165452,0.24518 0.07832,0.06068 0.176389,0.09807 0.282575,0.09807 0.115712,0 0.210609,-0.09384 0.210609,-0.210961 0,-0.115712 -0.0949,-0.20955 -0.210609,-0.20955 -0.0042,0 -0.01658,-0.0039 -0.02646,-0.01094 -0.0067,-0.0053 -0.01517,-0.01799 -0.01764,-0.0261 -0.0028,-0.0095 -0.0014,-0.02611 0.0025,-0.04269 0.0071,-0.01517 0.0194,-0.03457 0.03739,-0.05115 0.03563,-0.03034 0.103364,-0.05221 0.176389,-0.0508 0.06879,0.0042 0.138994,0.02187 0.199672,0.05786 0.05927,0.03457 0.111831,0.08678 0.14605,0.14605 0.03598,0.05927 0.05645,0.13088 0.05927,0.199672 0.0014,0.06914 -0.01376,0.140758 -0.0441,0.202847 -0.05221,0.104422 -0.01094,0.231422 0.09243,0.283633 0.103364,0.05256 0.230011,0.0099 0.282575,-0.09349 0.0635,-0.127 0.09349,-0.265994 0.08819,-0.408164 -0.0056,-0.140405 -0.04551,-0.278341 -0.117122,-0.399344 -0.07161,-0.121356 -0.173567,-0.223308 -0.294923,-0.293511 -0.121355,-0.07197 -0.259291,-0.111831 -0.399697,-0.116064 z"
           style="fill:#ffffff;fill-opacity:1;fill-rule:nonzero;stroke:none;stroke-width:0.352778" /><path
           id="path12"
           d="m -20.444024,-36.175863 c -0.140758,0.0042 -0.278342,0.0441 -0.399697,0.116064 -0.121356,0.0702 -0.223308,0.172155 -0.294922,0.293511 -0.07161,0.121003 -0.112889,0.258939 -0.117123,0.399344 -0.0014,0.02222 0.01235,0.04269 0.01376,0.06491 -0.148872,-0.03175 -0.290689,-0.104775 -0.442384,-0.07867 -0.199672,0.03457 -0.389819,0.118533 -0.54998,0.246944 -0.159808,0.126648 -0.285045,0.293512 -0.363714,0.482248 -0.04551,0.107244 0.0056,0.231422 0.111831,0.275519 0.107244,0.04551 0.230011,-0.0056 0.275519,-0.112889 0.0508,-0.122767 0.133703,-0.233186 0.237067,-0.315736 0.103364,-0.08255 0.230011,-0.138994 0.360891,-0.161219 0.1778,-0.03034 0.372181,0.0042 0.527756,0.09384 0.182033,0.104775 0.38735,-0.08961 0.293511,-0.276931 -0.03175,-0.06209 -0.04798,-0.133703 -0.04551,-0.202847 0.0028,-0.06879 0.02364,-0.140406 0.05927,-0.199672 0.03457,-0.05927 0.08678,-0.111478 0.147461,-0.14605 0.05927,-0.03598 0.12947,-0.05503 0.198614,-0.05786 0.07303,-0.0028 0.140406,0.02046 0.176389,0.0508 0.01799,0.01658 0.03034,0.03598 0.03563,0.05256 0.0056,0.01517 0.0056,0.03316 0.0028,0.04128 -0.0028,0.0095 -0.0095,0.02081 -0.01658,0.0261 -0.0081,0.0071 -0.02187,0.01094 -0.02611,0.01094 -0.115711,0 -0.20955,0.09384 -0.210961,0.210961 0.0014,0.115711 0.09525,0.20955 0.210961,0.20955 0.106186,0 0.202494,-0.03598 0.282575,-0.09666 0.08114,-0.06315 0.137583,-0.14852 0.165453,-0.246592 0.02893,-0.100542 0.02046,-0.203906 -0.01129,-0.296333 -0.03281,-0.09208 -0.08961,-0.169334 -0.158398,-0.2286 -0.136525,-0.118534 -0.305858,-0.158398 -0.462844,-0.153106 z"
           style="fill:#ffffff;fill-opacity:1;fill-rule:nonzero;stroke:none;stroke-width:0.352778" /><path
           id="path13"
           d="m -22.672521,-31.476511 v -1.834444 h -0.418747 v 2.191103 h 1.343377 v -0.356659 z"
           style="fill:#ffffff;fill-opacity:1;fill-rule:nonzero;stroke:none;stroke-width:0.352778" /><path
           id="path14"
           d="m -21.397935,-33.259802 c -0.13335,0 -0.240947,0.09913 -0.240947,0.223308 0,0.123825 0.107597,0.221897 0.240947,0.221897 0.133703,0 0.2413,-0.09807 0.2413,-0.221897 0,-0.124178 -0.107597,-0.223308 -0.2413,-0.223308 z m -0.209197,2.13995 h 0.418747 v -1.534936 h -0.418747 z"
           style="fill:#ffffff;fill-opacity:1;fill-rule:nonzero;stroke:none;stroke-width:0.352778" /><path
           id="path15"
           d="m -20.49941,-33.460885 h -0.418747 v 2.341033 h 0.352777 l 0.03175,-0.261761 c 0.06597,0.184855 0.248003,0.293511 0.460023,0.293511 0.40393,0 0.691797,-0.308681 0.691797,-0.821267 0,-0.439561 -0.240947,-0.777169 -0.633942,-0.777169 -0.209197,0 -0.381705,0.08255 -0.483658,0.264583 z m 0,1.519766 c 0,-0.249414 0.150283,-0.395464 0.321028,-0.395464 0.25788,0 0.365477,0.203906 0.365477,0.458964 0,0.308681 -0.14605,0.467078 -0.346075,0.467078 -0.167922,0 -0.34043,-0.148872 -0.34043,-0.381706 z"
           style="fill:#ffffff;fill-opacity:1;fill-rule:nonzero;stroke:none;stroke-width:0.352778" /><path
           id="path16"
           d="m -18.840296,-32.654788 h -0.352778 v 1.534936 h 0.4191 v -0.752122 c 0,-0.257881 0.09913,-0.445206 0.294922,-0.445206 0.07726,0 0.123825,0.0067 0.174978,0.02893 l 0.01658,-0.373592 c -0.03598,-0.01517 -0.09913,-0.02469 -0.153105,-0.02469 -0.14605,0 -0.313972,0.1143 -0.367947,0.289277 z"
           style="fill:#ffffff;fill-opacity:1;fill-rule:nonzero;stroke:none;stroke-width:0.352778" /><path
           id="path17"
           d="m -17.014319,-31.517786 c -0.1143,0.06032 -0.250825,0.0949 -0.418747,0.0949 -0.228953,0 -0.37218,-0.107598 -0.394053,-0.311503 h 0.929923 c 0.0099,-0.0508 0.01658,-0.123825 0.01658,-0.179211 0,-0.420159 -0.190147,-0.772936 -0.628297,-0.772936 -0.410633,0 -0.717903,0.325261 -0.717903,0.845961 0,0.504472 0.2921,0.752475 0.710847,0.752475 0.235656,0 0.409575,-0.04551 0.530578,-0.111478 z m -0.808919,-0.519641 c 0.02505,-0.20955 0.142169,-0.32385 0.294922,-0.32385 0.19297,0 0.265995,0.14605 0.265995,0.32385 z"
           style="fill:#ffffff;fill-opacity:1;fill-rule:nonzero;stroke:none;stroke-width:0.352778" /><path
           id="path18"
           d="m -15.765838,-33.342352 c -0.596547,0 -1.010003,0.435328 -1.010003,1.127125 0,0.690386 0.413456,1.127125 1.010003,1.127125 0.5969,0 1.010355,-0.436739 1.010355,-1.127125 0,-0.691797 -0.413455,-1.127125 -1.010355,-1.127125 z m 0,0.2286 c 0.384528,0 0.717903,0.293511 0.717903,0.898525 0,0.605014 -0.333375,0.897114 -0.717903,0.897114 -0.384528,0 -0.717903,-0.2921 -0.717903,-0.897114 0,-0.605014 0.333375,-0.898525 0.717903,-0.898525 z"
           style="fill:#ffffff;fill-opacity:1;fill-rule:nonzero;stroke:none;stroke-width:0.352778" /><path
           id="path19"
           d="m -14.430574,-32.630094 h -0.213431 v 0.203906 h 0.213431 v 1.306336 h 0.259291 v -1.306336 h 0.384528 v -0.203906 h -0.384528 v -0.1778 c 0,-0.325261 0.172156,-0.468489 0.359481,-0.468489 0.08819,0 0.14358,0.01376 0.192969,0.03316 l 0.01658,-0.217663 c -0.0508,-0.01799 -0.126647,-0.03175 -0.21202,-0.03175 -0.379236,0 -0.616302,0.252236 -0.616302,0.719313 z"
           style="fill:#ffffff;fill-opacity:1;fill-rule:nonzero;stroke:none;stroke-width:0.352778" /><path
           id="path20"
           d="m -12.451491,-32.630094 h -0.826911 v -0.07832 c 0,-0.332317 0.140758,-0.567973 0.435328,-0.567973 0.127,0 0.238477,0.02893 0.326672,0.08961 l 0.0261,-0.223308 c -0.06315,-0.0441 -0.194027,-0.08255 -0.326319,-0.08255 -0.428625,0 -0.720725,0.257527 -0.720725,0.818444 v 0.0441 h -0.213783 v 0.203906 h 0.213783 v 1.306336 h 0.258939 v -1.306336 h 0.566561 v 1.306336 h 0.26035 z"
           style="fill:#ffffff;fill-opacity:1;fill-rule:nonzero;stroke:none;stroke-width:0.352778" /><path
           id="path21"
           d="m -11.164558,-31.374558 c -0.0949,0.04833 -0.21343,0.07585 -0.321028,0.07585 -0.321027,0 -0.508352,-0.203905 -0.508352,-0.583141 0,-0.391231 0.223308,-0.576086 0.50553,-0.576086 0.133703,0 0.246945,0.03175 0.33902,0.0829 l 0.02223,-0.228952 c -0.08537,-0.04127 -0.219075,-0.0702 -0.37077,-0.0702 -0.409222,0 -0.781402,0.279753 -0.781402,0.811742 0,0.529166 0.32385,0.774347 0.737305,0.774347 0.154164,0 0.294922,-0.03175 0.399697,-0.07302 z"
           style="fill:#ffffff;fill-opacity:1;fill-rule:nonzero;stroke:none;stroke-width:0.352778" /><path
           id="path22"
           d="m -9.8621023,-31.410541 c -0.1075972,0.06773 -0.2508247,0.11183 -0.3845277,0.11183 -0.304447,0 -0.463197,-0.148872 -0.479778,-0.493536 h 0.949678 c 0.00953,-0.0508 0.012347,-0.08255 0.012347,-0.13088 0,-0.413456 -0.1612195,-0.751064 -0.555272,-0.751064 -0.409222,0 -0.67945,0.325261 -0.67945,0.833614 0,0.497769 0.270228,0.752475 0.688975,0.752475 0.1778,0 0.3460748,-0.04127 0.4603748,-0.104775 z m -0.8572497,-0.595136 c 0.02223,-0.267406 0.161219,-0.445206 0.370769,-0.445206 0.232834,0 0.321028,0.197203 0.321028,0.445206 z"
           style="fill:#ffffff;fill-opacity:1;fill-rule:nonzero;stroke:none;stroke-width:0.352778" /><path
           id="path23"
           d="m -21.315032,-28.506827 c -0.206728,0.105833 -0.390172,0.155575 -0.609247,0.155575 -0.468489,0 -0.782462,-0.331964 -0.782462,-0.897114 0,-0.551039 0.366537,-0.84067 0.79375,-0.84067 0.253295,0 0.461434,0.05927 0.622653,0.147461 l 0.04692,-0.402166 c -0.144639,-0.08431 -0.363714,-0.14217 -0.669573,-0.14217 -0.690386,0 -1.293988,0.442384 -1.293988,1.27635 0,0.822678 0.500238,1.253772 1.212497,1.253772 0.25788,0 0.51823,-0.04551 0.71508,-0.151694 z"
           style="fill:#ffffff;fill-opacity:1;fill-rule:nonzero;stroke:none;stroke-width:0.352778" /><path
           id="path24"
           d="m -20.307852,-29.742961 c -0.471311,0 -0.848783,0.313973 -0.848783,0.886178 0,0.569031 0.377472,0.887236 0.848783,0.887236 0.472722,0 0.849136,-0.318205 0.849136,-0.887236 0,-0.572205 -0.376414,-0.886178 -0.849136,-0.886178 z m 0,0.359481 c 0.215195,0 0.359834,0.1778 0.359834,0.526697 0,0.347133 -0.144639,0.526345 -0.359834,0.526345 -0.214841,0 -0.35948,-0.179212 -0.35948,-0.526345 0,-0.348897 0.144639,-0.526697 0.35948,-0.526697 z"
           style="fill:#ffffff;fill-opacity:1;fill-rule:nonzero;stroke:none;stroke-width:0.352778" /><path
           id="path25"
           d="m -18.849821,-29.70733 h -0.38982 v 1.702153 h 0.464256 v -0.876653 c 0,-0.267406 0.112889,-0.445206 0.307269,-0.445206 0.197203,0 0.294922,0.153106 0.294922,0.372181 v 0.949678 h 0.465667 v -1.137003 c 0,-0.347133 -0.225778,-0.600781 -0.606072,-0.600781 -0.228953,0 -0.423333,0.112889 -0.496358,0.357011 z"
           style="fill:#ffffff;fill-opacity:1;fill-rule:nonzero;stroke:none;stroke-width:0.352778" /><path
           id="path26"
           d="m -17.32688,-29.693572 h -0.237066 v 0.366536 h 0.237066 v 1.321859 h 0.464256 v -1.321859 h 0.461786 v -0.366536 h -0.461786 v -0.137583 c 0,-0.255058 0.144639,-0.417689 0.373592,-0.417689 0.09913,0 0.187325,0.01517 0.253294,0.04269 l 0.03175,-0.384528 c -0.0702,-0.02893 -0.183092,-0.04657 -0.287867,-0.04657 -0.468489,0 -0.835025,0.279753 -0.835025,0.84455 z"
           style="fill:#ffffff;fill-opacity:1;fill-rule:nonzero;stroke:none;stroke-width:0.352778" /><path
           id="path27"
           d="m -16.106269,-28.506827 c -0.147108,0 -0.267052,0.119944 -0.267052,0.268464 0,0.148872 0.119944,0.268816 0.267052,0.268816 0.148873,0 0.268817,-0.119944 0.268817,-0.268816 0,-0.14852 -0.119944,-0.268464 -0.268817,-0.268464 z"
           style="fill:#ffffff;fill-opacity:1;fill-rule:nonzero;stroke:none;stroke-width:0.352778" /><path
           id="path28"
           d="m -14.014296,-28.732958 0.217663,0.727781 h 0.513998 l -0.824089,-2.430992 h -0.556684 l -0.824088,2.430992 h 0.500238 l 0.218017,-0.727781 z m -0.119945,-0.395464 h -0.515408 l 0.25788,-0.858661 z"
           style="fill:#ffffff;fill-opacity:1;fill-rule:nonzero;stroke:none;stroke-width:0.352778" /><path
           id="path29"
           d="m -13.230072,-28.061975 c 0.126648,0.06068 0.296334,0.09243 0.443795,0.09243 0.395464,0 0.712258,-0.212019 0.712258,-0.558094 0,-0.255059 -0.126647,-0.417336 -0.457553,-0.494595 -0.117122,-0.02893 -0.190147,-0.08537 -0.190147,-0.180622 0,-0.106186 0.101953,-0.165453 0.242711,-0.165453 0.126648,0 0.239536,0.02752 0.344311,0.08431 l 0.02893,-0.381705 c -0.09913,-0.04163 -0.232833,-0.07444 -0.425803,-0.07444 -0.345722,0 -0.662869,0.191558 -0.662869,0.561975 0,0.264583 0.130881,0.420511 0.430036,0.498827 0.144639,0.03881 0.221897,0.0882 0.221897,0.179211 0,0.09666 -0.09243,0.155928 -0.243769,0.155928 -0.127,0 -0.260703,-0.02081 -0.408164,-0.08819 z"
           style="fill:#ffffff;fill-opacity:1;fill-rule:nonzero;stroke:none;stroke-width:0.352778" /><path
           id="path30"
           d="m -11.630224,-30.379724 c -0.148873,0 -0.268817,0.110419 -0.268817,0.248002 0,0.137936 0.119944,0.246592 0.268817,0.246592 0.147461,0 0.267405,-0.108656 0.267405,-0.246592 0,-0.137583 -0.119944,-0.248002 -0.267405,-0.248002 z m -0.232834,2.374547 h 0.465667 v -1.702153 h -0.465667 z"
           style="fill:#ffffff;fill-opacity:1;fill-rule:nonzero;stroke:none;stroke-width:0.352778" /><path
           id="path31"
           d="m -11.025211,-29.209561 c 0.137584,-0.08819 0.334787,-0.131233 0.472723,-0.131233 0.221897,0 0.316794,0.106186 0.316794,0.27305 v 0.03845 c -0.04269,-0.0039 -0.0949,-0.0067 -0.16263,-0.0067 -0.443795,0 -0.771525,0.201083 -0.771525,0.564797 0,0.314325 0.205316,0.50165 0.511175,0.50165 0.22613,0 0.362302,-0.06738 0.461433,-0.250825 l 0.03598,0.215195 h 0.3898196 v -1.09855 c 0,-0.388409 -0.2039055,-0.639234 -0.7108476,-0.639234 -0.197202,0 -0.425802,0.04939 -0.570441,0.137584 z m 0.789517,0.561975 c 0,0.197203 -0.115711,0.341842 -0.253647,0.341842 -0.126647,0 -0.21202,-0.08114 -0.21202,-0.197203 0,-0.151341 0.130881,-0.248003 0.327731,-0.248003 0.04551,0 0.09525,0.0042 0.137936,0.0071 z"
           style="fill:#ffffff;fill-opacity:1;fill-rule:nonzero;stroke:none;stroke-width:0.352778" /></g><g
         id="g9"
         transform="matrix(2.2450119,0,0,2.2450119,-28.397441,98.661439)"
         style="fill:#ffffff"><path
           id="path2-7"
           d="m 10.07241,-36.973494 c -0.1693333,0 -0.3072694,0.136173 -0.3058583,0.305859 v 1.281641 c 0,0.704145 0.5679723,1.2827 1.2678833,1.2827 0.6985,0 1.266472,-0.578555 1.266472,-1.2827 v -1.281641 c 0,-0.169686 -0.136525,-0.305859 -0.305858,-0.305859 -0.169686,0 -0.306211,0.136173 -0.306211,0.305859 v 1.281641 c 0,0.378884 -0.289278,0.669573 -0.654403,0.669573 -0.366536,0 -0.655814,-0.290689 -0.655814,-0.669573 v -1.281641 c 0,-0.169686 -0.137936,-0.305859 -0.306211,-0.305859 z"
           style="fill:#ffffff;fill-opacity:1;fill-rule:nonzero;stroke:none;stroke-width:0.352778" /><path
           id="path3-0"
           d="m 13.946263,-37.015121 c -0.620184,0 -1.128536,0.511527 -1.128536,1.132769 v 0.618772 c 0,0.621595 0.508352,1.13277 1.128536,1.13277 h 0.275519 c 0.621594,0 1.129947,-0.511175 1.129947,-1.13277 v -0.618772 c 0,-0.621242 -0.508353,-1.132769 -1.129947,-1.132769 z m 0,0.61348 h 0.275519 c 0.2921,0 0.518231,0.227189 0.518231,0.519289 v 0.618772 c 0,0.2921 -0.226131,0.519642 -0.518231,0.519642 h -0.275519 c -0.2921,0 -0.51682,-0.227542 -0.51682,-0.519642 v -0.618772 c 0,-0.2921 0.22472,-0.519289 0.51682,-0.519289 z"
           style="fill:#ffffff;fill-opacity:1;fill-rule:nonzero;stroke:none;stroke-width:0.352778" /><path
           id="path4-9"
           d="m 13.123585,-37.770066 c -0.169686,0 -0.305858,0.137584 -0.305858,0.30727 v 1.984375 c 0,0.169333 0.136172,0.305858 0.305858,0.305858 0.167922,0 0.305858,-0.137583 0.305858,-0.305858 v -1.984375 c -0.0014,-0.169686 -0.137936,-0.30727 -0.305858,-0.30727 z"
           style="fill:#ffffff;fill-opacity:1;fill-rule:nonzero;stroke:none;stroke-width:0.352778" /><path
           id="path5-3"
           d="m 16.174407,-36.973494 c -0.169333,0 -0.305858,0.136173 -0.305858,0.305859 v 1.281641 c 0,0.704145 0.567619,1.2827 1.267883,1.2827 0.6985,0 1.266472,-0.578555 1.266472,-1.2827 v -1.281641 c 0,-0.169686 -0.136525,-0.305859 -0.305858,-0.305859 -0.168275,0 -0.306211,0.136173 -0.306211,0.305859 v 1.281641 c 0,0.378884 -0.289278,0.669573 -0.654403,0.669573 -0.366536,0 -0.655814,-0.290689 -0.655814,-0.669573 v -1.281641 c 0,-0.169686 -0.137936,-0.305859 -0.306211,-0.305859 z"
           style="fill:#ffffff;fill-opacity:1;fill-rule:nonzero;stroke:none;stroke-width:0.352778" /><path
           id="path6-6"
           d="m 17.136432,-33.525797 c -0.700264,0 -1.267883,0.581731 -1.267883,1.284464 v 1.281642 c 0,0.169333 0.136525,0.307269 0.305858,0.307269 0.168275,0 0.306211,-0.137936 0.306211,-0.307269 v -1.281642 c 0,-0.378883 0.289278,-0.669925 0.655814,-0.669925 0.365125,0 0.654403,0.291042 0.654403,0.669925 v 1.281642 c 0,0.169333 0.137936,0.307269 0.306211,0.307269 0.169333,0 0.305858,-0.137936 0.305858,-0.307269 v -1.281642 c 0,-0.702733 -0.567972,-1.284464 -1.266472,-1.284464 z"
           style="fill:#ffffff;fill-opacity:1;fill-rule:nonzero;stroke:none;stroke-width:0.352778" /><path
           id="path7-0"
           d="m 11.090879,-33.509216 c -0.77858,0 -1.415344,0.638175 -1.415344,1.419225 0,0.781403 0.636764,1.420989 1.415344,1.420989 h 0.90417 c 0.169333,0 0.305858,-0.137936 0.305858,-0.30727 0,-0.169686 -0.136525,-0.307269 -0.305858,-0.307269 h -0.90417 c -0.450497,0 -0.803275,-0.354189 -0.803275,-0.80645 0,-0.451908 0.352778,-0.806097 0.803275,-0.806097 h 0.90417 c 0.169333,0 0.305858,-0.136172 0.305858,-0.305859 0,-0.169333 -0.136525,-0.307269 -0.305858,-0.307269 z"
           style="fill:#ffffff;fill-opacity:1;fill-rule:nonzero;stroke:none;stroke-width:0.352778" /><path
           id="path8-6"
           d="m 13.319376,-32.17113 c 0,0.234244 -0.190147,0.424392 -0.424744,0.424392 -0.234244,0 -0.42298,-0.190148 -0.42298,-0.424392 0,-0.235656 0.188736,-0.425803 0.42298,-0.425803 0.234597,0 0.424744,0.190147 0.424744,0.425803 z"
           style="fill:#ffffff;fill-opacity:1;fill-rule:nonzero;stroke:none;stroke-width:0.352778" /><path
           id="path9-2"
           d="m 15.084324,-33.104227 c 0,0.235655 -0.190148,0.425803 -0.422981,0.425803 -0.234244,0 -0.424392,-0.190148 -0.424392,-0.425803 0,-0.234245 0.190148,-0.424392 0.424392,-0.424392 0.232833,0 0.422981,0.190147 0.422981,0.424392 z"
           style="fill:#ffffff;fill-opacity:1;fill-rule:nonzero;stroke:none;stroke-width:0.352778" /><path
           id="path10-6"
           d="m 13.851013,-31.076813 c -0.304448,-0.06632 -0.560564,-0.262114 -0.704145,-0.539045 -0.112889,0.05115 -0.239536,0.06773 -0.362303,0.0441 0.173567,0.428625 0.541514,0.738717 0.993423,0.835025 0.09948,0.02222 0.201436,0.03316 0.301977,0.03175 -0.07867,-0.101952 -0.121355,-0.225777 -0.124177,-0.3556 -0.03563,-0.0039 -0.0702,-0.0095 -0.104775,-0.01623 z"
           style="fill:#ffffff;fill-opacity:1;fill-rule:nonzero;stroke:none;stroke-width:0.352778" /><path
           id="path11-1"
           d="m 14.989426,-31.075755 c 0,0.235656 -0.190147,0.425803 -0.424391,0.425803 -0.234245,0 -0.422981,-0.190147 -0.422981,-0.425803 0,-0.234244 0.188736,-0.424392 0.422981,-0.424392 0.234244,0 0.424391,0.190148 0.424391,0.424392 z"
           style="fill:#ffffff;fill-opacity:1;fill-rule:nonzero;stroke:none;stroke-width:0.352778" /><path
           id="path12-8"
           d="m 15.154879,-31.23133 c 0.132292,-0.166864 0.224367,-0.363714 0.269875,-0.573264 0.07726,-0.365125 0.0056,-0.748241 -0.199672,-1.058333 -0.04974,0.115711 -0.132292,0.212372 -0.238478,0.279753 0.1143,0.216252 0.148872,0.465666 0.09772,0.705555 -0.0247,0.118533 -0.0702,0.2286 -0.132292,0.329495 0.100894,0.08255 0.171097,0.192616 0.202847,0.316794 z"
           style="fill:#ffffff;fill-opacity:1;fill-rule:nonzero;stroke:none;stroke-width:0.352778" /><path
           id="path13-7"
           d="m 12.863235,-32.781788 c 0.0095,0 0.02046,0 0.0314,0 0.04304,0 0.08573,0.0042 0.128411,0.01411 0.06879,0.01517 0.133703,0.04128 0.19297,0.07691 0.191558,-0.274108 0.498827,-0.439561 0.832202,-0.446263 0.0028,-0.03175 0.0067,-0.0635 0.01376,-0.09525 0.0194,-0.09102 0.05927,-0.176389 0.115711,-0.249414 -0.5334,-0.04127 -1.051278,0.234244 -1.31445,0.699911 z"
           style="fill:#ffffff;fill-opacity:1;fill-rule:nonzero;stroke:none;stroke-width:0.352778" /><path
           id="path14-9"
           d="m 11.501513,-29.9511 c -0.03986,-0.0028 -0.07832,0.01376 -0.106186,0.04269 l -2.0379975,2.269772 c -0.049742,0.05362 -0.045508,0.138994 0.00953,0.187325 0.055386,0.04939 0.1393472,0.04551 0.1890888,-0.0095 l 1.6520587,-1.839736 -0.33902,1.193094 c -0.02046,0.07197 0.02081,0.144992 0.09102,0.165453 0.0702,0.02081 0.144639,-0.02046 0.165453,-0.09207 l 0.497416,-1.747661 c 0.02187,-0.08255 -0.03598,-0.1651 -0.121355,-0.169334 z"
           style="fill:#ffffff;fill-opacity:1;fill-rule:nonzero;stroke:none;stroke-width:0.352778" /><path
           id="path15-2"
           d="m 11.446479,-28.936863 -2.405944,0.156986 c -0.074436,0.0042 -0.1298222,0.06773 -0.1255888,0.142169 0.00564,0.07302 0.069144,0.12947 0.1421694,0.123825 l 2.4073554,-0.156986 c 0.07303,-0.0042 0.128058,-0.06773 0.123825,-0.140758 -0.0053,-0.07444 -0.06738,-0.12947 -0.141817,-0.125236 z"
           style="fill:#ffffff;fill-opacity:1;fill-rule:nonzero;stroke:none;stroke-width:0.352778" /><path
           id="path16-0"
           d="m 12.400038,-29.72638 c 0,0 -0.123825,0.07691 -0.26035,0.185914 -0.135114,0.110066 -0.290689,0.242711 -0.348545,0.425803 -0.03739,0.121355 0,0.232833 0.04939,0.329494 0.03986,0.08114 0.09243,0.155575 0.14217,0.230011 -0.136525,0.104775 -0.153106,0.117122 -0.291042,0.223308 -0.02187,0.01658 -0.0508,0.04798 -0.05927,0.0949 -0.0067,0.04551 0.0099,0.08961 0.02752,0.113241 0.03316,0.04657 0.06068,0.05503 0.08819,0.06879 0.05539,0.02611 0.117123,0.04269 0.186267,0.05644 0.06738,0.01235 0.138994,0.02223 0.206728,0.02223 0.03422,-0.0014 0.06597,-0.0028 0.100541,-0.01129 0.03457,-0.0067 0.07585,-0.01764 0.115712,-0.06738 0.08008,-0.100542 0.06879,-0.234244 0.03034,-0.333375 -0.01376,-0.03457 -0.03845,-0.06491 -0.05644,-0.09807 0.238478,-0.183092 0.433917,-0.333375 0.545747,-0.420159 -0.0028,0.04692 -0.01235,0.09102 -0.0042,0.138995 0.01376,0.08573 0.06491,0.183444 0.159808,0.233186 0.117122,0.05927 0.24377,0.05786 0.351367,0.02752 0.107597,-0.02893 0.200025,-0.08537 0.278341,-0.144639 0.158398,-0.118534 0.264584,-0.25647 0.264584,-0.25647 0.04551,-0.05785 0.03598,-0.141816 -0.02328,-0.187325 -0.05785,-0.04551 -0.140758,-0.03457 -0.186266,0.02328 0,0 -0.08925,0.1143 -0.213431,0.206727 -0.06209,0.04692 -0.13088,0.08537 -0.191558,0.101953 -0.06068,0.01658 -0.109008,0.01658 -0.159808,-0.0095 -0.0095,-0.0056 -0.01235,-0.0056 -0.01799,-0.0388 -0.0053,-0.03422 -0.0028,-0.09066 0.0085,-0.147461 0.02187,-0.1143 0.06879,-0.224367 0.06879,-0.224367 0.05503,-0.125589 -0.09384,-0.242711 -0.202494,-0.15875 0,0 -0.464608,0.3556 -0.814564,0.624417 -0.0441,-0.06597 -0.08961,-0.132292 -0.117122,-0.185914 -0.03457,-0.06914 -0.03704,-0.114653 -0.03316,-0.130881 0.02081,-0.0635 0.142169,-0.200025 0.261761,-0.297744 0.121355,-0.09807 0.234597,-0.168275 0.234597,-0.168275 0.06174,-0.03845 0.08114,-0.119945 0.04269,-0.183092 -0.0388,-0.06209 -0.119944,-0.0829 -0.183444,-0.04269 z m -0.279753,1.401233 c 0.0042,0.0099 0.01658,0.02505 0.0194,0.03457 0.01517,0.03704 0.0095,0.03845 0.0067,0.04692 -0.0025,0 -0.0039,0 -0.0067,0 -0.02893,0 -0.0702,-0.0071 -0.11042,-0.01235 0.0441,-0.03316 0.04833,-0.03598 0.09102,-0.06914 z"
           style="fill:#ffffff;fill-opacity:1;fill-rule:nonzero;stroke:none;stroke-width:0.352778" /><path
           id="path17-2"
           d="m 14.533285,-29.463208 c 0,0 -0.365125,-0.07303 -0.684742,0.227189 -0.09666,0.08961 -0.169686,0.197203 -0.186267,0.32385 -0.0095,0.0635 0,0.136525 0.0374,0.198614 0.03704,0.06209 0.100542,0.106186 0.173567,0.13088 0.141816,0.04692 0.27693,-0.01235 0.384527,-0.08396 0.108656,-0.07303 0.205317,-0.169686 0.289278,-0.255058 0.0441,-0.04692 0.06632,-0.06632 0.100542,-0.100542 0.02223,0.08255 0.02893,0.18027 0.07867,0.231423 0.08396,0.08255 0.183092,0.117122 0.250825,0.139347 0.210609,0.06597 0.43815,-0.0071 0.63112,-0.07726 0.192969,-0.0702 0.348544,-0.153105 0.348544,-0.153105 0.06491,-0.03422 0.08961,-0.1143 0.05503,-0.180622 -0.03422,-0.06456 -0.1143,-0.08925 -0.180269,-0.05503 0,0 -0.139347,0.07444 -0.312914,0.136525 -0.173567,0.0635 -0.384528,0.09913 -0.461786,0.07444 -0.05503,-0.01658 -0.108656,-0.03986 -0.143228,-0.07444 -0.03316,-0.03316 -0.05927,-0.07444 -0.05362,-0.183444 0.0028,-0.02752 0.0028,-0.05362 -0.0085,-0.08537 -0.0081,-0.03316 -0.03422,-0.08396 -0.08678,-0.107245 -0.05221,-0.02364 -0.09913,-0.0127 -0.128058,-0.0014 -0.0028,0.0014 -0.0028,0.0025 -0.0056,0.0039 -0.0081,-0.05362 -0.04692,-0.09631 -0.09772,-0.108656 z m -0.19297,0.256117 c 0.0702,-0.01094 0.101953,0 0.1143,0.0028 -0.03281,0.03316 -0.06174,0.05927 -0.09913,0.09666 -0.07973,0.08114 -0.167922,0.166511 -0.245181,0.219075 -0.07726,0.0508 -0.129469,0.06068 -0.153105,0.05221 -0.02752,-0.0081 -0.02893,-0.01517 -0.03034,-0.01658 0,-0.0014 -0.0039,-0.0053 -0.0028,-0.02328 0.0042,-0.03457 0.04269,-0.107597 0.103363,-0.165452 0.119945,-0.111478 0.230364,-0.151695 0.311503,-0.165453 z"
           style="fill:#ffffff;fill-opacity:1;fill-rule:nonzero;stroke:none;stroke-width:0.352778" /><path
           id="path18-3"
           d="m 13.532807,-29.723911 c 0,0.09666 -0.07726,0.17392 -0.172156,0.17392 -0.09525,0 -0.172508,-0.07726 -0.172508,-0.17392 0,-0.09631 0.07726,-0.174977 0.172508,-0.174977 0.0949,0 0.172156,0.07867 0.172156,0.174977 z"
           style="fill:#ffffff;fill-opacity:1;fill-rule:nonzero;stroke:none;stroke-width:0.352778" /><path
           id="path19-7"
           d="m 9.5749933,-38.560994 c -0.094897,0 -0.1721555,0.07832 -0.1721555,0.173567 0,0.09631 0.077258,0.173567 0.1721555,0.173567 h 6.7055997 c 0.09525,0 0.173567,-0.07726 0.173567,-0.173567 0,-0.09525 -0.07832,-0.173567 -0.173567,-0.173567 z m 7.5201637,0 c -0.09525,0.0014 -0.172508,0.07832 -0.172508,0.173567 0,0.09631 0.07726,0.173567 0.172508,0.173567 h 1.453797 c 0.0949,0 0.172156,-0.07726 0.172156,-0.173567 0,-0.09525 -0.07726,-0.172155 -0.172156,-0.173567 z"
           style="fill:#ffffff;fill-opacity:1;fill-rule:nonzero;stroke:none;stroke-width:0.352778" /><path
           id="path20-5"
           d="m 9.6991711,-39.688471 c -0.1241778,0.0042 -0.2427111,0.05115 -0.3347861,0.139347 -0.1104194,0.106186 -0.1626305,0.255058 -0.1488722,0.404989 0.012347,0.148872 0.088194,0.282575 0.2053167,0.370769 0.085372,0.06632 0.1845027,0.100542 0.2836333,0.112889 0.098072,0.0127 0.1929694,0.0014 0.2797527,-0.02046 0.1739195,-0.04269 0.3129135,-0.128058 0.4385025,-0.200025 0.16122,-0.09208 0.321028,-0.176389 0.483659,-0.234244 0.161219,-0.05645 0.32773,-0.08678 0.485069,-0.07444 0.253294,0.02222 0.503061,0.168274 0.644878,0.380647 0.05362,0.07832 0.161219,0.09913 0.239889,0.04657 0.07973,-0.05362 0.100541,-0.161219 0.04657,-0.240947 -0.203905,-0.301978 -0.540102,-0.500239 -0.902405,-0.530578 -0.220486,-0.0194 -0.43427,0.02328 -0.629708,0.09243 -0.194381,0.06879 -0.372181,0.163689 -0.539045,0.258939 -0.128058,0.07303 -0.242358,0.138995 -0.3513666,0.166864 -0.053622,0.01235 -0.1061861,0.01658 -0.1527527,0.01094 -0.045508,-0.0056 -0.088195,-0.02222 -0.1185334,-0.0441 -0.037394,-0.02893 -0.066322,-0.08008 -0.070556,-0.125589 -0.00247,-0.0441 0.01658,-0.09631 0.045508,-0.123825 0.026458,-0.02469 0.066322,-0.04128 0.104775,-0.04269 0.038806,-0.0014 0.082903,0.01376 0.1143,0.03845 0.0127,0.0095 0.025047,0.02081 0.034572,0.03457 0.059267,0.07444 0.1682747,0.08678 0.2427107,0.02752 0.0755,-0.05927 0.08819,-0.168275 0.02893,-0.244123 -0.02787,-0.03422 -0.05927,-0.06597 -0.09525,-0.09208 -0.094897,-0.07444 -0.212372,-0.1143 -0.3347859,-0.11183 z"
           style="fill:#ffffff;fill-opacity:1;fill-rule:nonzero;stroke:none;stroke-width:0.352778" /><path
           id="path21-9"
           d="m 13.52046,-39.874385 c -0.07302,0 -0.133703,0.06068 -0.133703,0.133703 v 1.353255 c 0,0.07444 0.06068,0.133703 0.133703,0.133703 h 1.083028 c 0.07302,0 0.132291,-0.05927 0.132291,-0.133703 v -1.353255 c 0,-0.07302 -0.05927,-0.133703 -0.132291,-0.133703 z m 0.132291,0.267405 h 0.817034 v 1.08585 h -0.817034 z"
           style="fill:#ffffff;fill-opacity:1;fill-rule:nonzero;stroke:none;stroke-width:0.352778" /><path
           id="path22-2"
           d="m 13.392401,-41.040316 c -0.142169,0.0042 -0.282574,0.0441 -0.405341,0.115711 -0.122414,0.07338 -0.225778,0.176389 -0.298803,0.299156 -0.07338,0.122767 -0.114653,0.261761 -0.118533,0.405342 0,0.02328 0.01376,0.04516 0.01517,0.06879 -0.171097,-0.0441 -0.346075,-0.0635 -0.519641,-0.03457 -0.208139,0.03598 -0.405342,0.124178 -0.569031,0.255058 -0.165453,0.132292 -0.294922,0.304448 -0.376414,0.498828 -0.03704,0.08819 0.0042,0.190147 0.09243,0.227189 0.08819,0.0374 0.190147,-0.0053 0.22613,-0.09349 0.05891,-0.139347 0.154164,-0.265994 0.272698,-0.361244 0.118533,-0.09349 0.263172,-0.158398 0.412044,-0.184503 0.205317,-0.03457 0.424392,0.0056 0.605014,0.109008 0.148872,0.08537 0.316794,-0.07444 0.239536,-0.228953 -0.03704,-0.07444 -0.05503,-0.161219 -0.05221,-0.243769 0.0028,-0.08431 0.02752,-0.169686 0.0702,-0.2413 0.04269,-0.07161 0.104775,-0.133703 0.176389,-0.176389 0.07161,-0.04128 0.157338,-0.06597 0.239888,-0.06879 0.08961,-0.0028 0.174978,0.02328 0.226131,0.06879 0.02611,0.02223 0.04516,0.04974 0.05503,0.07726 0.0095,0.02611 0.01094,0.05645 0.0042,0.07867 -0.0056,0.02046 -0.02081,0.04269 -0.0374,0.05503 -0.01658,0.01376 -0.04128,0.02187 -0.0635,0.02187 -0.0949,0.0014 -0.172155,0.08149 -0.170744,0.176389 0.0014,0.09666 0.08114,0.172509 0.176389,0.171097 0.09772,-0.0014 0.191558,-0.03457 0.268816,-0.09525 0.07832,-0.05927 0.133703,-0.141816 0.159809,-0.237066 0.02752,-0.09772 0.02046,-0.19685 -0.01094,-0.286456 -0.03175,-0.0896 -0.08678,-0.165453 -0.154517,-0.223308 -0.135114,-0.117122 -0.304447,-0.158397 -0.462845,-0.153106 z"
           style="fill:#ffffff;fill-opacity:1;fill-rule:nonzero;stroke:none;stroke-width:0.352778" /><path
           id="path23-2"
           d="m 18.379268,-39.688471 c -0.122414,-0.0025 -0.239536,0.03739 -0.334786,0.11183 -0.03563,0.02611 -0.06738,0.05786 -0.09384,0.09208 -0.05891,0.07585 -0.04657,0.184856 0.02787,0.244123 0.07444,0.05927 0.183092,0.04692 0.242359,-0.02752 0.0095,-0.01376 0.02223,-0.02505 0.03457,-0.03457 0.03281,-0.02469 0.07726,-0.03986 0.115711,-0.03845 0.03704,0.0014 0.07867,0.01799 0.103364,0.04269 0.02893,0.02752 0.04833,0.07973 0.04551,0.123825 -0.0042,0.04551 -0.03316,0.09666 -0.0702,0.125589 -0.03034,0.02187 -0.07338,0.03845 -0.118533,0.0441 -0.04551,0.0056 -0.09807,0.0014 -0.153105,-0.01094 -0.107598,-0.02787 -0.221898,-0.09384 -0.349956,-0.166864 -0.168275,-0.09525 -0.344664,-0.190147 -0.540103,-0.258939 -0.195791,-0.06914 -0.409575,-0.11183 -0.630061,-0.09243 -0.362303,0.03034 -0.6985,0.2286 -0.902405,0.530578 -0.05398,0.07973 -0.03175,0.187325 0.04692,0.240947 0.07832,0.05398 0.185914,0.03175 0.239536,-0.04657 0.14217,-0.212373 0.391584,-0.358422 0.644878,-0.380647 0.157339,-0.01235 0.32385,0.01799 0.485069,0.07444 0.162631,0.05785 0.322439,0.142169 0.484011,0.234244 0.125237,0.07197 0.264584,0.157339 0.43815,0.200025 0.08819,0.02187 0.181681,0.03316 0.281164,0.02046 0.09772,-0.01235 0.19685,-0.04657 0.282223,-0.112889 0.117122,-0.08819 0.192969,-0.221897 0.206727,-0.370769 0.01235,-0.149931 -0.03986,-0.298803 -0.14993,-0.404989 -0.09102,-0.08819 -0.210961,-0.135114 -0.335139,-0.139347 z"
           style="fill:#ffffff;fill-opacity:1;fill-rule:nonzero;stroke:none;stroke-width:0.352778" /><path
           id="path24-8"
           d="m 14.68639,-41.040316 c -0.157339,-0.0053 -0.328083,0.03598 -0.463197,0.153106 -0.06738,0.05785 -0.122767,0.133703 -0.154164,0.223308 -0.03175,0.08961 -0.03739,0.188736 -0.01129,0.286456 0.02646,0.09525 0.0829,0.1778 0.159809,0.237066 0.07726,0.06068 0.171097,0.09384 0.270227,0.09525 0.09525,0.0014 0.173567,-0.07444 0.174978,-0.171097 0.0014,-0.0949 -0.07444,-0.174978 -0.170744,-0.176389 -0.02081,0 -0.04551,-0.0081 -0.0635,-0.02187 -0.01658,-0.01235 -0.03175,-0.03457 -0.03704,-0.05503 -0.0071,-0.02222 -0.0042,-0.05256 0.0039,-0.07867 0.0099,-0.02752 0.02893,-0.05503 0.05539,-0.07726 0.05221,-0.04551 0.136172,-0.07161 0.225778,-0.06879 0.0829,0.0028 0.168275,0.02752 0.239888,0.06879 0.07161,0.04269 0.135114,0.104775 0.1778,0.176389 0.04269,0.07161 0.06597,0.156986 0.0702,0.2413 0.0028,0.08255 -0.01658,0.169333 -0.05362,0.243769 -0.07726,0.154517 0.09207,0.314325 0.240947,0.228953 0.179211,-0.103364 0.399697,-0.14358 0.603603,-0.109008 0.150283,0.02611 0.293511,0.09102 0.413455,0.184503 0.118534,0.09525 0.213784,0.221897 0.271639,0.361244 0.03704,0.08819 0.137584,0.130881 0.225778,0.09349 0.08819,-0.03704 0.12947,-0.138994 0.09384,-0.227189 -0.08149,-0.19438 -0.212372,-0.366536 -0.376414,-0.498828 -0.1651,-0.13088 -0.362303,-0.219075 -0.570442,-0.255058 -0.173566,-0.02893 -0.348544,-0.0095 -0.517877,0.03457 0,-0.02364 0.01517,-0.04551 0.01517,-0.06879 -0.0056,-0.143581 -0.04692,-0.282575 -0.119944,-0.405342 -0.07302,-0.122767 -0.176389,-0.225778 -0.299156,-0.299156 -0.122766,-0.07161 -0.261761,-0.111477 -0.404989,-0.115711 z"
           style="fill:#ffffff;fill-opacity:1;fill-rule:nonzero;stroke:none;stroke-width:0.352778" /><path
           id="path25-9"
           d="m 13.501057,-39.349452 c -0.156986,-0.01764 -0.316794,0.0071 -0.461433,0.07303 -0.148872,0.06773 -0.277284,0.176389 -0.367947,0.312914 -0.09243,0.136525 -0.143581,0.294922 -0.150284,0.460375 -0.0028,0.0949 0.07161,0.176389 0.166864,0.179211 0.09631,0.0025 0.176389,-0.07197 0.178858,-0.166864 0.0042,-0.09913 0.03598,-0.198614 0.09102,-0.279753 0.05362,-0.08149 0.133703,-0.148872 0.223308,-0.190147 0.08678,-0.03845 0.185914,-0.05503 0.281164,-0.0441 0.0949,0.01094 0.180622,-0.05785 0.190147,-0.153105 0.01094,-0.0949 -0.05644,-0.18027 -0.151694,-0.191559 z"
           style="fill:#ffffff;fill-opacity:1;fill-rule:nonzero;stroke:none;stroke-width:0.352778" /><path
           id="path26-7"
           d="m 14.627124,-39.349452 c -0.09525,0.01129 -0.162631,0.09666 -0.151695,0.191559 0.0095,0.09666 0.09631,0.164041 0.191559,0.153105 0.09349,-0.01094 0.192969,0.0056 0.279752,0.0441 0.08961,0.04127 0.169334,0.108656 0.223309,0.190147 0.05503,0.08114 0.08678,0.180623 0.09066,0.279753 0.0028,0.0949 0.08431,0.170745 0.179211,0.166864 0.09525,-0.0042 0.169686,-0.08431 0.166863,-0.179211 -0.0071,-0.165453 -0.05785,-0.32385 -0.148872,-0.460375 -0.09102,-0.136525 -0.219075,-0.24518 -0.369358,-0.312914 -0.144639,-0.06597 -0.304447,-0.09066 -0.461433,-0.07303 z"
           style="fill:#ffffff;fill-opacity:1;fill-rule:nonzero;stroke:none;stroke-width:0.352778" /><path
           id="path27-3"
           d="m 14.040101,-41.650621 c -0.05539,0 -0.106186,0.0261 -0.139347,0.0702 l -0.421569,0.566561 c -0.05786,0.07691 -0.04163,0.185914 0.03422,0.242358 0.07726,0.05786 0.184856,0.04128 0.242711,-0.03598 l 0.283986,-0.380295 0.282223,0.380295 c 0.05785,0.07726 0.165452,0.09384 0.242711,0.03598 0.07585,-0.05644 0.09243,-0.165453 0.03422,-0.242358 l -0.421569,-0.566561 c -0.03175,-0.0441 -0.08396,-0.0702 -0.137584,-0.0702 z"
           style="fill:#ffffff;fill-opacity:1;fill-rule:nonzero;stroke:none;stroke-width:0.352778" /><path
           id="path28-6"
           d="m 17.110326,-30.200513 c -0.740127,0 -1.339497,0.60078 -1.339497,1.34373 0,0.741186 0.59937,1.343378 1.339497,1.343378 0.739775,0 1.339497,-0.602192 1.339497,-1.343378 0,-0.74295 -0.599722,-1.34373 -1.339497,-1.34373 z m -0.333727,0.453319 c 0.0441,0 0.0829,0.0056 0.114652,0.01517 0.0314,0.01094 0.05786,0.02469 0.07832,0.0441 0.02081,0.01799 0.03739,0.04127 0.04692,0.06738 0.0095,0.02646 0.01517,0.0568 0.01517,0.09102 0,0.02752 -0.0056,0.05398 -0.01658,0.08008 -0.01094,0.0247 -0.02611,0.04939 -0.04269,0.07444 -0.01799,0.02328 -0.03704,0.04551 -0.05927,0.06738 -0.02187,0.02223 -0.0441,0.04269 -0.06491,0.06209 -0.01094,0.01094 -0.02328,0.02187 -0.03563,0.03598 -0.01235,0.01235 -0.02469,0.02469 -0.03598,0.03704 -0.01235,0.01376 -0.02187,0.02611 -0.0314,0.03704 -0.0099,0.01129 -0.01517,0.02081 -0.01658,0.02787 h 0.324908 v 0.137583 H 16.54941 c -0.0028,-0.0081 -0.0028,-0.0194 -0.0028,-0.03175 v -0.02611 c 0,-0.03457 0.0056,-0.06597 0.01658,-0.09631 0.01094,-0.02893 0.02611,-0.05539 0.0441,-0.08008 0.01799,-0.02611 0.03845,-0.04974 0.06209,-0.07161 0.02328,-0.02187 0.04551,-0.0441 0.06879,-0.06632 0.01658,-0.01623 0.03316,-0.0314 0.04833,-0.04657 0.01517,-0.01517 0.02893,-0.03034 0.04127,-0.0441 0.01094,-0.01376 0.02046,-0.02893 0.02611,-0.04269 0.0071,-0.01376 0.01094,-0.02893 0.01094,-0.0441 0,-0.03175 -0.0095,-0.05398 -0.02752,-0.06773 -0.01799,-0.01235 -0.04127,-0.0194 -0.06738,-0.0194 -0.02081,0 -0.03881,0.0028 -0.05645,0.0099 -0.01658,0.0053 -0.03175,0.01376 -0.04692,0.02187 -0.01376,0.0085 -0.02611,0.01658 -0.03598,0.02505 -0.0095,0.0081 -0.01799,0.01517 -0.02328,0.02046 l -0.08008,-0.1143 c 0.03175,-0.03034 0.06914,-0.05503 0.11183,-0.07303 0.04269,-0.02081 0.08819,-0.03034 0.137584,-0.03034 z m 0.643819,0 c 0.08537,0 0.151342,0.03457 0.199672,0.103364 0.04833,0.06738 0.07302,0.165453 0.07302,0.2921 0,0.128058 -0.02469,0.22613 -0.07302,0.294922 -0.04833,0.06738 -0.1143,0.101953 -0.199672,0.101953 -0.08573,0 -0.153106,-0.03457 -0.201436,-0.101953 -0.04798,-0.06879 -0.07161,-0.166864 -0.07161,-0.294922 0,-0.0635 0.0056,-0.119945 0.01799,-0.167922 0.01376,-0.04974 0.03175,-0.09102 0.05644,-0.124178 0.02328,-0.03457 0.05256,-0.05927 0.08537,-0.07726 0.03316,-0.01658 0.07161,-0.02611 0.113242,-0.02611 z m 0,0.140406 c -0.02081,0 -0.03739,0.0056 -0.05256,0.01799 -0.01235,0.01235 -0.02328,0.03034 -0.03175,0.05398 -0.0081,0.02187 -0.01376,0.04939 -0.01799,0.07973 -0.0039,0.03175 -0.0053,0.06632 -0.0053,0.103364 0,0.0388 0.0028,0.07302 0.0053,0.104775 0.0042,0.03034 0.0099,0.05785 0.01799,0.08008 0.0085,0.02328 0.0194,0.04127 0.03175,0.05362 0.01517,0.01235 0.03175,0.01799 0.05256,0.01799 0.02046,0 0.03704,-0.0056 0.0508,-0.01799 0.01376,-0.01235 0.02469,-0.03034 0.03316,-0.05362 0.0081,-0.02222 0.01376,-0.04974 0.01799,-0.08008 0.0025,-0.03175 0.0039,-0.06597 0.0039,-0.104775 0,-0.03704 -0.0025,-0.07161 -0.0039,-0.103364 -0.0042,-0.03034 -0.0099,-0.05786 -0.01799,-0.07973 -0.0085,-0.02364 -0.0194,-0.04163 -0.03316,-0.05398 -0.01376,-0.01235 -0.03034,-0.01799 -0.0508,-0.01799 z m -0.643819,0.844902 c 0.0441,0 0.0829,0.0056 0.114652,0.01658 0.0314,0.0095 0.05786,0.02469 0.07832,0.04269 0.02081,0.0194 0.03739,0.04127 0.04692,0.06879 0.0095,0.02646 0.01517,0.05644 0.01517,0.0896 0,0.02752 -0.0056,0.05398 -0.01658,0.08008 -0.01094,0.02469 -0.02611,0.04939 -0.04269,0.07444 -0.01799,0.02328 -0.03704,0.04551 -0.05927,0.06738 -0.02187,0.02223 -0.0441,0.04269 -0.06491,0.0635 -0.01094,0.0095 -0.02328,0.02046 -0.03563,0.03422 -0.01235,0.0127 -0.02469,0.02505 -0.03598,0.0388 -0.01235,0.01235 -0.02187,0.02469 -0.0314,0.03704 -0.0099,0.01129 -0.01517,0.0194 -0.01658,0.02752 h 0.324908 v 0.136525 H 16.54941 c -0.0028,-0.0081 -0.0028,-0.01799 -0.0028,-0.03034 v -0.02611 c 0,-0.03598 0.0056,-0.06738 0.01658,-0.09631 0.01094,-0.02893 0.02611,-0.0568 0.0441,-0.08149 0.01799,-0.02611 0.03845,-0.04974 0.06209,-0.07161 0.02328,-0.02223 0.04551,-0.0441 0.06879,-0.06491 0.01658,-0.01764 0.03316,-0.03281 0.04833,-0.04798 0.01517,-0.01517 0.02893,-0.02893 0.04127,-0.04269 0.01094,-0.01517 0.02046,-0.02893 0.02611,-0.04304 0.0071,-0.01482 0.01094,-0.02999 0.01094,-0.0441 0,-0.03281 -0.0095,-0.05503 -0.02752,-0.06738 -0.01799,-0.01376 -0.04127,-0.02081 -0.06738,-0.02081 -0.02081,0 -0.03881,0.0042 -0.05645,0.0099 -0.01658,0.0067 -0.03175,0.01376 -0.04692,0.02187 -0.01376,0.0085 -0.02611,0.01658 -0.03598,0.02646 -0.0095,0.0067 -0.01799,0.01376 -0.02328,0.01905 l -0.08008,-0.1143 c 0.03175,-0.03034 0.06914,-0.05362 0.11183,-0.07303 0.04269,-0.0194 0.08819,-0.03034 0.137584,-0.03034 z m 0.5969,0 c 0.0441,0 0.08255,0.0071 0.1143,0.01658 0.03316,0.01094 0.05927,0.02611 0.08114,0.04551 0.02081,0.0194 0.03598,0.04127 0.04692,0.06738 0.0099,0.02611 0.01517,0.05398 0.01517,0.08396 0,0.03034 -0.0081,0.05927 -0.0261,0.08819 -0.01658,0.02787 -0.03845,0.04974 -0.06738,0.0635 0.03986,0.01658 0.0702,0.03986 0.09066,0.07303 0.02222,0.03034 0.03316,0.06914 0.03316,0.113242 0,0.03563 -0.0053,0.06738 -0.01799,0.09772 -0.01094,0.02893 -0.03034,0.05503 -0.05503,0.07726 -0.02469,0.02046 -0.05503,0.03704 -0.09384,0.04939 -0.03845,0.01235 -0.08396,0.01799 -0.136172,0.01799 -0.0194,0 -0.04022,-0.0014 -0.06209,-0.0042 -0.02187,-0.0025 -0.04269,-0.0053 -0.0635,-0.0095 -0.02046,-0.0056 -0.03845,-0.0095 -0.05503,-0.01517 -0.01658,-0.0042 -0.03034,-0.0095 -0.03986,-0.01376 l 0.03175,-0.136525 c 0.01905,0.0085 0.04269,0.01799 0.07161,0.02611 0.03034,0.0099 0.06738,0.01376 0.110067,0.01376 0.05115,0 0.08819,-0.0095 0.11183,-0.02893 0.02328,-0.01764 0.03422,-0.0441 0.03422,-0.07549 0,-0.02081 -0.0039,-0.0374 -0.01376,-0.04974 -0.0067,-0.01376 -0.01905,-0.02469 -0.03281,-0.03316 -0.01517,-0.0081 -0.03175,-0.01517 -0.05256,-0.01799 -0.0194,-0.0025 -0.04127,-0.0053 -0.0635,-0.0053 h -0.06315 v -0.130881 h 0.07161 c 0.01658,0 0.03175,-0.0014 0.04551,-0.0042 0.01517,-0.0028 0.02893,-0.0081 0.04128,-0.01376 0.01094,-0.0081 0.02081,-0.01799 0.02752,-0.02893 0.0071,-0.01235 0.01094,-0.02752 0.01094,-0.04692 0,-0.01376 -0.0039,-0.02469 -0.0095,-0.03563 -0.0056,-0.0099 -0.01376,-0.01799 -0.02222,-0.02505 -0.0095,-0.0067 -0.01905,-0.01094 -0.0314,-0.01376 -0.0127,-0.0042 -0.02505,-0.0053 -0.0374,-0.0053 -0.03034,0 -0.05927,0.0039 -0.08678,0.01376 -0.02611,0.0095 -0.05115,0.02046 -0.07161,0.03422 l -0.05786,-0.118533 c 0.01094,-0.0081 0.0247,-0.01517 0.03986,-0.02328 0.01658,-0.0085 0.03316,-0.01517 0.05256,-0.02222 0.01905,-0.0067 0.03845,-0.01235 0.06032,-0.01623 0.02222,-0.0042 0.0441,-0.0071 0.06914,-0.0071 z"
           style="fill:#ffffff;fill-opacity:1;fill-rule:nonzero;stroke:none;stroke-width:0.352778" /></g></g></g></svg>
